<svg width="16" height="7" viewBox="0 0 16 7" fill="none" xmlns="http://www.w3.org/2000/svg">
<path d="M1.028 3.25422C0.398 2.98352 0 2.43008 0 1.82486V1.66072C0 0.77793 0.8325 0.0625 1.85975 0.0625C2.66025 0.0625 3.37075 0.502715 3.624 1.1552C3.816 1.64998 3.914 2.125 4.57675 2.125H11.4235C12.108 2.125 12.213 1.57629 12.3763 1.1552C12.6293 0.502715 13.34 0.0625 14.1403 0.0625C15.1675 0.0625 16 0.77793 16 1.66072V1.82486C16 2.43008 15.602 2.98352 14.972 3.25422C14.7363 3.35541 14.7363 3.64459 14.972 3.74578C15.602 4.01648 16 4.56992 16 5.17514V5.33928C16 6.22207 15.1675 6.9375 14.1405 6.9375C13.34 6.9375 12.6295 6.49729 12.3763 5.8448C12.1843 5.35002 12.0863 4.875 11.4235 4.875H4.57675C3.89225 4.875 3.78725 5.42371 3.624 5.8448C3.37075 6.49729 2.66 6.9375 1.85975 6.9375C0.83275 6.9375 0.000249863 6.22207 0.000249863 5.33928V5.17514C0.000249863 4.56971 0.39825 4.01648 1.02825 3.74578C1.26375 3.64459 1.26375 3.35541 1.028 3.25422Z" fill="#F4A52C"/>
</svg>
