<svg width="28" height="28" viewBox="0 0 28 28" fill="none" xmlns="http://www.w3.org/2000/svg">
<path d="M25.9722 0H1.52778C1.12259 0 0.73399 0.160962 0.447476 0.447476C0.160962 0.73399 0 1.12259 0 1.52778V25.9722C0 26.3774 0.160962 26.766 0.447476 27.0525C0.73399 27.339 1.12259 27.5 1.52778 27.5H14.6896V16.8667H11.1176V12.7035H14.6896V9.64792C14.6896 6.09583 16.859 4.16014 20.0368 4.16014C21.1047 4.15708 22.1742 4.21208 23.2375 4.32361V8.02083H21.0451C19.3218 8.02083 18.9857 8.84278 18.9857 10.0451V12.6958H23.1061L22.5714 16.859H18.9842V27.5H25.9722C26.3774 27.5 26.766 27.339 27.0525 27.0525C27.339 26.766 27.5 26.3774 27.5 25.9722V1.52778C27.5 1.12259 27.339 0.73399 27.0525 0.447476C26.766 0.160962 26.3774 0 25.9722 0Z" fill="#F4A52C"/>
</svg>
