<svg width="17" height="15" viewBox="0 0 17 15" fill="none" xmlns="http://www.w3.org/2000/svg">
<path d="M16.6765 4.92444C16.4813 4.46073 16.1572 4.12639 15.7388 3.95799L15.7332 3.95588C15.5428 3.8813 15.3401 3.84314 15.1356 3.84338H15.1131C14.1554 3.8578 13.1777 4.67167 12.6806 5.86874C12.316 6.74413 12.2742 7.68562 12.5688 8.38734C12.7636 8.8514 13.0884 9.18574 13.5085 9.35414L13.5131 9.3559C13.7035 9.43043 13.9063 9.46859 14.1108 9.4684C15.0775 9.4684 16.0654 8.65453 16.5717 7.44164C16.9317 6.5673 16.9714 5.62651 16.6765 4.92444Z" fill="black"/>
<path d="M12.8501 10.0875C12.2978 9.75561 11.7757 9.44167 11.4347 8.87776C10.4939 7.31682 9.92576 6.37463 8.43619 6.37463C6.94662 6.37463 6.37709 7.31682 5.4342 8.87776C5.09248 9.44237 4.56935 9.75667 4.01529 10.09C3.38002 10.4717 2.72365 10.8662 2.44029 11.6425C2.33013 11.9223 2.27464 12.2206 2.27681 12.5214C2.27681 13.7852 3.26119 14.8136 4.47056 14.8136C5.09459 14.8136 5.75869 14.5973 6.46146 14.3685C7.13716 14.1484 7.83572 13.9209 8.4397 13.9209C9.04369 13.9209 9.74049 14.1484 10.4137 14.3685C11.1151 14.5959 11.776 14.8121 12.4018 14.8121C13.6094 14.8121 14.592 13.7838 14.592 12.52C14.593 12.219 14.5364 11.9207 14.4251 11.641C14.1417 10.8641 13.485 10.4693 12.8501 10.0875Z" fill="black"/>
<path d="M4.70962 5.1389C5.12798 5.66379 5.65884 5.95277 6.20446 5.95277C6.27895 5.95277 6.35333 5.94724 6.427 5.93625C7.56501 5.7689 8.27411 4.38023 8.04138 2.77218C7.94399 2.09613 7.68384 1.46648 7.31118 0.999606C6.89352 0.475778 6.36196 0.187145 5.81669 0.187145C5.7422 0.187147 5.66782 0.19267 5.59415 0.203668C4.45614 0.371012 3.74704 1.75968 3.97977 3.36773C4.07681 4.04273 4.33696 4.67168 4.70962 5.1389Z" fill="black"/>
<path d="M10.4457 5.93621C10.5194 5.9472 10.5938 5.95273 10.6683 5.95273C11.2142 5.95273 11.7447 5.66374 12.1631 5.13886C12.5354 4.67164 12.7941 4.04269 12.8926 3.36699C13.1253 1.75964 12.4162 0.370972 11.2782 0.202925C11.2045 0.191927 11.1302 0.186404 11.0557 0.186401C10.5104 0.187104 9.97884 0.475737 9.56118 0.999565C9.18852 1.46644 8.92837 2.09609 8.83134 2.77285C8.5986 4.38019 9.3077 5.76886 10.4457 5.93621Z" fill="black"/>
<path d="M3.35926 9.35587L3.36418 9.35411C3.7836 9.18571 4.10809 8.85173 4.3025 8.38801C4.59711 7.68489 4.55563 6.74446 4.19176 5.86906C3.68797 4.65757 2.70043 3.84335 1.73469 3.84335C1.53018 3.84306 1.32744 3.88122 1.13703 3.95585L1.13211 3.95761C0.713753 4.12461 0.389261 4.46 0.194847 4.92371C-0.0997628 5.62684 -0.0582784 6.56727 0.305589 7.44266C0.809378 8.65415 1.79692 9.46837 2.76266 9.46837C2.96681 9.46853 3.16919 9.43037 3.35926 9.35587Z" fill="black"/>
</svg>
