<svg width="28" height="28" viewBox="0 0 28 28" fill="none" xmlns="http://www.w3.org/2000/svg">
<path d="M18.3419 19.5441L20.7109 17.1751C21.0299 16.86 21.4336 16.6443 21.8729 16.5542C22.3122 16.4641 22.7682 16.5034 23.1856 16.6675L26.0728 17.8202C26.4945 17.9914 26.8562 18.2836 27.1122 18.66C27.3681 19.0364 27.5069 19.4802 27.5111 19.9354V25.2233C27.5086 25.5329 27.4435 25.8388 27.3197 26.1226C27.1959 26.4065 27.016 26.6623 26.7907 26.8747C26.5654 27.0872 26.2995 27.2518 26.0089 27.3588C25.7183 27.4657 25.4091 27.5128 25.0998 27.497C4.86836 26.2385 0.786115 9.10578 0.0140842 2.5488C-0.021754 2.22681 0.0109905 1.90088 0.110163 1.59245C0.209336 1.28402 0.372689 1.00008 0.589477 0.759316C0.806265 0.518552 1.07157 0.326417 1.36795 0.195551C1.66433 0.0646853 1.98505 -0.00194505 2.30903 4.32221e-05H7.41712C7.87295 0.00139246 8.31795 0.13908 8.69488 0.395397C9.07182 0.651713 9.36345 1.01494 9.53228 1.43835L10.685 4.32553C10.8545 4.74123 10.8978 5.19766 10.8094 5.63779C10.721 6.07792 10.5048 6.48225 10.188 6.80026L7.819 9.16924C7.819 9.16924 9.18328 18.4019 18.3419 19.5441Z" fill="#F4A52C"/>
</svg>
