<svg width="20" height="28" viewBox="0 0 20 28" fill="none" xmlns="http://www.w3.org/2000/svg">
<path d="M9.625 0C4.30375 0 0 4.30375 0 9.625C0 16.8438 9.625 27.5 9.625 27.5C9.625 27.5 19.25 16.8438 19.25 9.625C19.25 4.30375 14.9462 0 9.625 0ZM9.625 13.0625C8.71332 13.0625 7.83898 12.7003 7.19432 12.0557C6.54966 11.411 6.1875 10.5367 6.1875 9.625C6.1875 8.71332 6.54966 7.83898 7.19432 7.19432C7.83898 6.54966 8.71332 6.1875 9.625 6.1875C10.5367 6.1875 11.411 6.54966 12.0557 7.19432C12.7003 7.83898 13.0625 8.71332 13.0625 9.625C13.0625 10.5367 12.7003 11.411 12.0557 12.0557C11.411 12.7003 10.5367 13.0625 9.625 13.0625Z" fill="#F4A52C"/>
</svg>
