<svg width="50" height="50" viewBox="0 0 50 50" fill="none" xmlns="http://www.w3.org/2000/svg">
<path d="M36.45 29.9641C35.8234 29.6469 32.7719 28.1578 32.2016 27.9453C31.6312 27.7422 31.2172 27.6359 30.8016 28.2625C30.3953 28.8734 29.1984 30.2719 28.8328 30.6797C28.4672 31.0875 28.1078 31.1187 27.4906 30.8422C26.8641 30.525 24.8625 29.8734 22.4859 27.7422C20.6297 26.0906 19.3937 24.0562 19.0266 23.4297C18.6609 22.8109 18.9859 22.4609 19.2953 22.1516C19.5797 21.8672 19.9219 21.4359 20.2391 21.0609C20.5406 20.6859 20.6375 20.4344 20.8578 20.0281C21.0609 19.5891 20.9562 19.2469 20.8016 18.9375C20.6469 18.6281 19.4016 15.5609 18.8812 14.3391C18.3844 13.1266 17.8641 13.2812 17.4812 13.2812C17.1234 13.2484 16.7078 13.2484 16.2938 13.2484C15.8797 13.2484 15.2031 13.4031 14.6328 13.9969C14.0625 14.6234 12.4516 16.1203 12.4516 19.1484C12.4516 22.1844 14.6812 25.1219 14.9906 25.5609C15.3078 25.9672 19.3766 32.2172 25.6187 34.9031C27.1078 35.5297 28.2641 35.9047 29.1672 36.2141C30.6562 36.6859 32.0156 36.6203 33.0891 36.4656C34.2766 36.2703 36.7672 34.9594 37.2891 33.4953C37.8187 32.0219 37.8187 30.8016 37.6641 30.525C37.5094 30.2406 37.1031 30.0859 36.4766 29.8094L36.45 29.9641ZM25.0969 45.3125C21.4016 45.3125 17.7484 44.3109 14.5578 42.4391L13.8094 41.9922L5.99688 44.0266L8.09688 36.425L7.59219 35.6437C5.52885 32.3631 4.43422 28.5662 4.43438 24.6906C4.43438 13.3469 13.7203 4.09375 25.1453 4.09375C30.6797 4.09375 35.8719 6.25 39.7781 10.1562C41.7051 12.0603 43.2336 14.329 44.2745 16.8301C45.3154 19.3311 45.8478 22.0144 45.8406 24.7234C45.825 36.0594 36.5469 45.3125 25.1375 45.3125H25.0969ZM42.7484 7.18594C37.9953 2.59531 31.7453 0 25.0969 0C11.3844 0 0.21875 11.1172 0.210938 24.7797C0.210938 29.1422 1.35 33.3984 3.53125 37.1656L0 50L13.2 46.5578C16.8567 48.5293 20.9441 49.5663 25.0984 49.5766H25.1063C38.8266 49.5766 49.9922 38.4594 50 24.7875C50 18.1719 47.4203 11.9453 42.7172 7.26562L42.7484 7.18594Z" fill="white"/>
</svg>
