<svg width="1920" height="204" viewBox="0 0 1920 204" fill="none" xmlns="http://www.w3.org/2000/svg">
<rect width="1920" height="204" fill="#F4A52C"/>
<g style="mix-blend-mode:luminosity">
<mask id="mask0" mask-type="alpha" maskUnits="userSpaceOnUse" x="0" y="0" width="1920" height="204">
<rect width="1920" height="204" fill="#F4A52C"/>
</mask>
<g mask="url(#mask0)">
<g clip-path="url(#clip0)">
<path d="M103.353 67.6443C96.4421 73.061 94.1876 82.5325 97.9169 90.4817L57.6346 121.987C49.5732 115.424 37.718 116.639 31.1551 124.7C24.5922 132.761 25.807 144.617 33.8684 151.18C36.3458 153.196 39.2956 154.549 42.4404 155.111C41.752 165.483 49.6019 174.449 59.9735 175.138C70.3452 175.826 79.311 167.976 79.9993 157.605C80.2106 154.42 79.6087 151.234 78.2501 148.346L118.532 116.841C126.594 123.404 138.449 122.189 145.012 114.128C151.575 106.066 150.36 94.211 142.298 87.6481C139.821 85.6313 136.871 84.2781 133.726 83.7162C134.417 73.3458 126.57 64.3789 116.2 63.6881C111.577 63.3798 107.002 64.7887 103.353 67.6443ZM121.391 90.7084C124.184 88.5228 127.675 87.4263 131.216 87.6232C131.234 87.6248 131.251 87.6287 131.269 87.6291C139.339 88.1019 145.498 95.0274 145.026 103.098C144.553 111.168 137.628 117.327 129.557 116.854C125.996 116.646 122.633 115.144 120.101 112.63C119.353 111.886 118.168 111.815 117.337 112.465L74.2914 146.132C73.4604 146.781 73.2436 147.948 73.7856 148.853C77.9349 155.792 75.6738 164.78 68.7357 168.929C61.7977 173.078 52.8093 170.817 48.6602 163.879C47.1311 161.322 46.4187 158.36 46.6179 155.387C50.5222 155.211 54.2744 153.822 57.3529 151.414C58.2627 150.702 58.4234 149.388 57.7119 148.478C57.0003 147.568 55.6858 147.407 54.776 148.119C51.9836 150.305 48.492 151.401 44.9513 151.204C44.9334 151.202 44.9158 151.199 44.8982 151.198C36.8279 150.725 30.6689 143.8 31.1415 135.73C31.614 127.66 38.5397 121.5 46.6099 121.973C50.1713 122.182 53.5343 123.684 56.0662 126.197C56.8141 126.941 57.9988 127.012 58.8298 126.362L101.876 92.6955C102.707 92.0456 102.923 90.8787 102.381 89.9737C98.2321 83.0354 100.493 74.0473 107.431 69.8981C114.37 65.7487 123.358 68.0098 127.507 74.9479C129.036 77.5047 129.748 80.4673 129.549 83.4399C125.645 83.6166 121.893 85.0053 118.814 87.4133C117.904 88.1249 117.744 89.4394 118.455 90.3492C119.167 91.259 120.481 91.4201 121.391 90.7084Z" fill="#DF932E"/>
<path d="M70.8912 138.17L74.186 135.593L76.763 138.888L73.4681 141.465L70.8912 138.17Z" fill="#DF932E"/>
<path d="M77.481 133.017L80.7758 130.44L83.3528 133.735L80.0579 136.311L77.481 133.017Z" fill="#DF932E"/>
<path d="M84.0707 127.863L93.9553 120.132L96.5322 123.427L86.6476 131.158L84.0707 127.863Z" fill="#DF932E"/>
</g>
<g clip-path="url(#clip1)">
<path d="M637.615 29.9626C629.237 27.3347 620.154 30.8405 615.715 38.4159L566.936 23.0578C567.779 12.6971 560.064 3.61407 549.704 2.77043C539.343 1.92661 530.26 9.64178 529.416 20.0024C529.157 23.1865 529.712 26.384 531.03 29.2942C522.092 34.6005 519.148 46.1478 524.454 55.0858C529.761 64.0239 541.308 66.9678 550.246 61.6616C552.99 60.0323 555.275 57.7318 556.886 54.9766L605.665 70.3347C604.821 80.6954 612.536 89.7784 622.897 90.622C633.258 91.4657 642.34 83.7507 643.184 73.3898C643.443 70.2057 642.888 67.0082 641.57 64.098C650.509 58.7945 653.455 47.2492 648.152 38.3109C645.787 34.3257 642.035 31.3533 637.615 29.9626ZM628.822 57.8914C632.204 58.9552 635.086 61.2119 636.928 64.2416C636.937 64.2572 636.944 64.2739 636.954 64.2887C641.134 71.2079 638.914 80.206 631.995 84.3869C625.077 88.5677 616.078 86.3477 611.897 79.4288C610.052 76.3754 609.386 72.7529 610.023 69.2426C610.213 68.2048 609.6 67.1883 608.594 66.8715L556.469 50.4597C555.463 50.1429 554.378 50.6251 553.939 51.5843C550.571 58.9334 541.882 62.16 534.534 58.7915C527.185 55.423 523.958 46.7346 527.326 39.3857C528.568 36.6775 530.606 34.4126 533.169 32.8933C535.525 36.0111 538.795 38.3172 542.523 39.4907C543.625 39.8376 544.799 39.2256 545.146 38.1239C545.493 37.0222 544.881 35.8478 543.779 35.5009C540.396 34.4372 537.515 32.1805 535.673 29.1508C535.664 29.1351 535.657 29.1185 535.647 29.1037C531.467 22.1845 533.687 13.1863 540.605 9.00547C547.524 4.82461 556.523 7.04466 560.704 13.9636C562.549 17.017 563.215 20.6395 562.578 24.1496C562.388 25.1873 563.001 26.2038 564.007 26.5206L616.132 42.9324C617.138 43.2492 618.223 42.767 618.662 41.8078C622.03 34.4587 630.719 31.2321 638.067 34.6006C645.417 37.9691 648.643 46.6575 645.275 54.0064C644.033 56.7146 641.995 58.9795 639.432 60.4988C637.076 57.381 633.806 55.0749 630.078 53.9014C628.976 53.5545 627.802 54.1665 627.455 55.2682C627.108 56.3699 627.72 57.5445 628.822 57.8914Z" fill="#DF932E"/>
<path d="M561.105 43.1487L565.095 44.4049L563.839 48.3947L559.849 47.1385L561.105 43.1487Z" fill="#DF932E"/>
<path d="M569.085 45.6611L573.075 46.9173L571.818 50.9072L567.829 49.651L569.085 45.6611Z" fill="#DF932E"/>
<path d="M577.064 48.1736L589.034 51.9422L587.778 55.9321L575.808 52.1634L577.064 48.1736Z" fill="#DF932E"/>
</g>
<g clip-path="url(#clip2)">
<path d="M1062.81 108.016C1054.85 111.716 1050.5 120.425 1052.32 129.015L1005.92 150.516C999.563 142.29 987.743 140.772 979.516 147.127C971.29 153.482 969.772 165.302 976.127 173.528C978.08 176.057 980.644 178.046 983.578 179.31C980.546 189.252 986.147 199.77 996.089 202.803C1006.03 205.835 1016.55 200.234 1019.58 190.292C1020.51 187.239 1020.65 184 1019.99 180.878L1066.39 159.377C1072.74 167.603 1084.56 169.121 1092.79 162.766C1101.02 156.411 1102.53 144.591 1096.18 136.364C1094.22 133.836 1091.66 131.847 1088.73 130.583C1091.76 120.643 1086.16 110.124 1076.22 107.09C1071.79 105.736 1067.02 106.066 1062.81 108.016ZM1075.12 134.582C1078.34 133.09 1081.99 132.818 1085.39 133.816C1085.41 133.821 1085.43 133.829 1085.44 133.834C1093.19 136.132 1097.61 144.278 1095.31 152.029C1093.02 159.779 1084.87 164.199 1077.12 161.901C1073.7 160.886 1070.77 158.658 1068.87 155.634C1068.31 154.739 1067.18 154.4 1066.22 154.844L1016.64 177.82C1015.68 178.264 1015.2 179.351 1015.52 180.356C1017.98 188.057 1013.74 196.293 1006.04 198.753C998.334 201.213 990.097 196.964 987.637 189.264C986.731 186.426 986.712 183.379 987.583 180.53C991.425 181.247 995.395 180.749 998.941 179.106C999.989 178.62 1000.44 177.377 999.959 176.329C999.474 175.281 998.23 174.825 997.182 175.311C993.965 176.803 990.316 177.075 986.913 176.077C986.896 176.071 986.88 176.063 986.863 176.059C979.112 173.76 974.693 165.614 976.991 157.864C979.289 150.113 987.436 145.694 995.186 147.992C998.606 149.006 1001.54 151.235 1003.43 154.259C1003.99 155.154 1005.13 155.492 1006.09 155.049L1055.67 132.072C1056.62 131.628 1057.1 130.542 1056.78 129.537C1054.32 121.836 1058.57 113.599 1066.27 111.139C1073.97 108.679 1082.21 112.928 1084.67 120.629C1085.57 123.467 1085.59 126.514 1084.72 129.363C1080.88 128.646 1076.91 129.143 1073.36 130.787C1072.32 131.272 1071.86 132.516 1072.35 133.564C1072.83 134.612 1074.07 135.068 1075.12 134.582Z" fill="#DF932E"/>
<path d="M1015.14 169.294L1018.94 167.535L1020.69 171.33L1016.9 173.089L1015.14 169.294Z" fill="#DF932E"/>
<path d="M1022.73 165.777L1026.53 164.018L1028.28 167.813L1024.49 169.572L1022.73 165.777Z" fill="#DF932E"/>
<path d="M1030.32 162.259L1041.71 156.983L1043.47 160.778L1032.08 166.054L1030.32 162.259Z" fill="#DF932E"/>
</g>
<g clip-path="url(#clip3)">
<path d="M1890.89 164.278C1882.73 161.034 1873.41 163.855 1868.42 171.079L1820.92 152.135C1822.53 141.866 1815.51 132.235 1805.24 130.623C1794.97 129.011 1785.34 136.029 1783.73 146.298C1783.24 149.454 1783.55 152.684 1784.65 155.684C1775.34 160.311 1771.55 171.607 1776.17 180.915C1780.8 190.223 1792.1 194.018 1801.4 189.391C1804.26 187.97 1806.71 185.846 1808.52 183.218L1856.02 202.162C1854.41 212.431 1861.43 222.063 1871.7 223.675C1881.97 225.287 1891.6 218.269 1893.21 207.999C1893.71 204.843 1893.39 201.613 1892.29 198.613C1901.6 193.989 1905.4 182.695 1900.78 173.387C1898.71 169.237 1895.19 165.994 1890.89 164.278ZM1880.04 191.476C1883.34 192.788 1886.04 195.253 1887.65 198.411C1887.66 198.427 1887.67 198.444 1887.68 198.46C1891.33 205.671 1888.45 214.479 1881.24 218.134C1874.03 221.788 1865.22 218.905 1861.56 211.694C1859.95 208.512 1859.56 204.85 1860.45 201.397C1860.72 200.376 1860.18 199.317 1859.2 198.926L1808.44 178.683C1807.46 178.292 1806.35 178.692 1805.84 179.616C1801.93 186.695 1793.03 189.266 1785.95 185.36C1778.87 181.454 1776.3 172.55 1780.21 165.472C1781.64 162.864 1783.85 160.757 1786.51 159.432C1788.63 162.717 1791.72 165.26 1795.35 166.707C1796.42 167.135 1797.64 166.612 1798.07 165.539C1798.5 164.466 1797.97 163.25 1796.9 162.822C1793.61 161.509 1790.9 159.045 1789.29 155.886C1789.28 155.87 1789.28 155.853 1789.27 155.837C1785.61 148.626 1788.5 139.818 1795.71 136.164C1802.92 132.509 1811.73 135.392 1815.38 142.603C1816.99 145.785 1817.39 149.447 1816.49 152.9C1816.23 153.921 1816.76 154.98 1817.74 155.371L1868.5 175.614C1869.48 176.005 1870.6 175.605 1871.11 174.681C1875.01 167.603 1883.92 165.031 1891 168.937C1898.07 172.843 1900.65 181.747 1896.74 188.825C1895.3 191.433 1893.1 193.54 1890.43 194.865C1888.31 191.58 1885.22 189.038 1881.59 187.59C1880.52 187.162 1879.3 187.685 1878.88 188.758C1878.45 189.831 1878.97 191.048 1880.04 191.476Z" fill="#DF932E"/>
<path d="M1813.61 171.737L1817.5 173.287L1815.95 177.172L1812.06 175.623L1813.61 171.737Z" fill="#DF932E"/>
<path d="M1821.38 174.836L1825.27 176.386L1823.72 180.271L1819.83 178.722L1821.38 174.836Z" fill="#DF932E"/>
<path d="M1829.15 177.935L1840.81 182.584L1839.26 186.469L1827.6 181.82L1829.15 177.935Z" fill="#DF932E"/>
</g>
<g clip-path="url(#clip4)">
<path d="M1437.74 62.1017C1429.89 58.1734 1420.36 60.1885 1414.77 66.9605L1369.06 44.0325C1371.54 33.9383 1365.37 23.7429 1355.28 21.2605C1345.19 18.7781 1334.99 24.9488 1332.51 35.043C1331.75 38.1452 1331.78 41.3903 1332.62 44.4731C1322.95 48.2889 1318.21 59.2202 1322.02 68.889C1325.84 78.5578 1336.77 83.3025 1346.44 79.4869C1349.41 78.3153 1352.03 76.408 1354.06 73.9443L1399.77 96.8722C1397.29 106.966 1403.46 117.162 1413.55 119.644C1423.65 122.127 1433.84 115.956 1436.33 105.862C1437.09 102.759 1437.05 99.5142 1436.21 96.4314C1445.88 92.6184 1450.63 81.6895 1446.81 72.0208C1445.11 67.7101 1441.88 64.1783 1437.74 62.1017ZM1424.61 88.2743C1427.78 89.863 1430.27 92.5496 1431.61 95.8341C1431.61 95.8509 1431.62 95.8685 1431.62 95.8846C1434.65 103.381 1431.03 111.911 1423.53 114.937C1416.03 117.963 1407.5 114.339 1404.48 106.843C1403.14 103.534 1403.06 99.852 1404.25 96.488C1404.6 95.4937 1404.16 94.3926 1403.21 93.9196L1354.37 69.4187C1353.42 68.9458 1352.28 69.2491 1351.69 70.1262C1347.19 76.8453 1338.1 78.6476 1331.38 74.1521C1324.67 69.6566 1322.86 60.5652 1327.36 53.8463C1329.02 51.3703 1331.39 49.4588 1334.16 48.3669C1335.99 51.8201 1338.85 54.6173 1342.35 56.3694C1343.38 56.8872 1344.63 56.47 1345.15 55.4376C1345.67 54.4052 1345.25 53.1483 1344.22 52.6304C1341.05 51.0417 1338.57 48.3551 1337.23 45.0707C1337.22 45.0538 1337.22 45.0363 1337.21 45.0201C1334.18 37.5236 1337.81 28.9937 1345.31 25.9676C1352.8 22.9416 1361.33 26.5659 1364.36 34.0622C1365.69 37.3704 1365.77 41.0528 1364.59 44.4166C1364.23 45.4108 1364.68 46.5119 1365.62 46.9849L1414.47 71.4858C1415.41 71.9588 1416.56 71.6554 1417.14 70.7783C1421.64 64.0592 1430.73 62.257 1437.45 66.7525C1444.17 71.2481 1445.97 80.3393 1441.48 87.0582C1439.82 89.5343 1437.45 91.4458 1434.67 92.5377C1432.84 89.0844 1429.98 86.2872 1426.49 84.5352C1425.46 84.0173 1424.2 84.4345 1423.68 85.4669C1423.16 86.4994 1423.58 87.7564 1424.61 88.2743Z" fill="#DF932E"/>
<path d="M1360.11 62.9392L1363.85 64.8146L1361.97 68.5535L1358.23 66.6782L1360.11 62.9392Z" fill="#DF932E"/>
<path d="M1367.59 66.6899L1371.32 68.5653L1369.45 72.3043L1365.71 70.4289L1367.59 66.6899Z" fill="#DF932E"/>
<path d="M1375.06 70.4407L1386.28 76.0668L1384.41 79.8058L1373.19 74.1796L1375.06 70.4407Z" fill="#DF932E"/>
</g>
<g clip-path="url(#clip5)">
<path d="M480.811 225.938C475.97 218.612 466.712 215.6 458.487 218.674L430.342 175.977C437.534 168.473 437.282 156.558 429.777 149.365C422.273 142.172 410.358 142.424 403.165 149.929C400.955 152.235 399.368 155.066 398.553 158.155C388.271 156.631 378.7 163.73 377.176 174.012C375.651 184.294 382.751 193.865 393.032 195.39C396.189 195.858 399.414 195.515 402.402 194.394L430.548 237.092C423.355 244.596 423.608 256.511 431.112 263.704C438.617 270.897 450.531 270.644 457.724 263.139C459.935 260.833 461.522 258.002 462.336 254.913C472.617 256.44 482.189 249.344 483.716 239.063C484.397 234.48 483.362 229.806 480.811 225.938ZM456.364 242.053C458.317 245.013 459.128 248.582 458.645 252.095C458.642 252.113 458.637 252.13 458.635 252.148C457.511 260.153 450.111 265.732 442.105 264.609C434.099 263.486 428.52 256.085 429.644 248.079C430.139 244.546 431.909 241.316 434.619 238.995C435.421 238.31 435.587 237.135 435.006 236.254L404.929 190.628C404.349 189.747 403.203 189.437 402.257 189.904C395.006 193.479 386.23 190.498 382.656 183.248C379.081 175.997 382.061 167.221 389.312 163.646C391.984 162.328 394.994 161.858 397.941 162.297C397.801 166.202 398.882 170.055 401.034 173.318C401.669 174.282 402.967 174.549 403.931 173.913C404.895 173.277 405.162 171.98 404.526 171.016C402.573 168.056 401.762 164.487 402.245 160.974C402.248 160.956 402.253 160.939 402.255 160.921C403.379 152.915 410.779 147.337 418.785 148.46C426.791 149.583 432.37 156.984 431.246 164.99C430.751 168.522 428.981 171.753 426.272 174.074C425.47 174.759 425.303 175.934 425.884 176.815L455.961 222.441C456.541 223.322 457.687 223.632 458.633 223.165C465.884 219.59 474.66 222.57 478.235 229.821C481.81 237.072 478.829 245.848 471.579 249.423C468.907 250.74 465.896 251.211 462.949 250.772C463.089 246.866 462.008 243.014 459.857 239.751C459.221 238.787 457.924 238.52 456.959 239.156C455.995 239.792 455.728 241.089 456.364 242.053Z" fill="#DF932E"/>
<path d="M413.139 187.882L415.442 191.375L411.949 193.677L409.647 190.185L413.139 187.882Z" fill="#DF932E"/>
<path d="M417.744 194.867L420.046 198.36L416.554 200.662L414.251 197.169L417.744 194.867Z" fill="#DF932E"/>
<path d="M422.348 201.852L429.255 212.329L425.762 214.631L418.856 204.154L422.348 201.852Z" fill="#DF932E"/>
</g>
<path d="M243.156 88.9906C242.686 86.524 243.109 84.2386 244.383 82.3826L244.401 82.3583C244.986 81.5221 245.723 80.8032 246.574 80.2392L246.667 80.177C250.687 77.5906 256.999 78.2719 262.372 81.8741C266.306 84.5053 269.081 88.3031 269.795 92.034C270.268 94.5011 269.841 96.7884 268.56 98.6493L268.546 98.6692C267.961 99.5052 267.223 100.224 266.373 100.788C262.355 103.46 256 102.807 250.546 99.1641C246.634 96.5246 243.87 92.7239 243.156 88.9906Z" fill="#DF932E"/>
<path d="M273.323 99.8781C274.702 96.9724 276.004 94.2249 275.864 90.9386C275.462 81.8508 275.22 76.3645 281.411 72.2485C287.602 68.1324 292.572 70.4749 300.803 74.3577C303.783 75.7603 306.826 75.6212 310.049 75.4755C313.744 75.307 317.562 75.1329 320.884 77.5765C322.115 78.4352 323.17 79.522 323.992 80.778C327.483 86.0314 326.233 93.0259 321.207 96.3677C318.613 98.0921 315.255 99.0284 311.702 100.019C308.286 100.971 304.754 101.956 302.244 103.625C299.734 105.294 297.466 108.165 295.276 110.94C292.989 113.824 290.84 116.549 288.239 118.278C283.22 121.615 276.295 120.056 272.803 114.803C271.968 113.554 271.379 112.158 271.069 110.688C270.1 106.675 271.739 103.22 273.323 99.8781Z" fill="#DF932E"/>
<path d="M293.485 56.8146C293.196 60.1524 291.788 62.8205 289.521 64.3282C289.211 64.534 288.887 64.7166 288.55 64.8745C283.358 67.3235 276.574 63.5107 273.099 56.1836C271.636 53.1044 270.978 49.7683 271.237 46.7979C271.526 43.4665 272.938 40.7979 275.204 39.2912C275.514 39.0853 275.838 38.9028 276.175 38.7449C281.367 36.2959 288.15 40.1086 291.625 47.4358C293.087 50.5096 293.743 53.8428 293.485 56.8146Z" fill="#DF932E"/>
<path d="M271.847 75.9791C271.572 76.2284 271.278 76.4569 270.968 76.6627C268.699 78.1714 265.696 78.4361 262.507 77.4104C259.669 76.4971 256.856 74.5978 254.58 72.0612C249.172 66.0232 248.283 58.2915 252.548 54.4484C252.824 54.1991 253.118 53.9706 253.428 53.7648C255.696 52.261 258.703 51.9919 261.886 53.0151C264.724 53.926 267.545 55.8243 269.818 58.3692C275.226 64.4072 276.115 72.1389 271.847 75.9791Z" fill="#DF932E"/>
<path d="M310.747 70.6115L310.722 70.6178C308.514 71.0768 306.242 70.5852 304.153 69.1949C300.986 67.0864 298.561 63.0627 297.655 58.4186C296.402 51.9908 298.257 45.8776 302.27 43.209C303.12 42.6426 304.068 42.241 305.065 42.0251L305.091 42.0188C307.291 41.5569 309.566 42.0543 311.655 43.4446C314.822 45.5531 317.248 49.5768 318.154 54.2209C319.407 60.6487 317.552 66.7619 313.538 69.4305C312.69 69.9953 311.743 70.3959 310.747 70.6115Z" fill="#DF932E"/>
<path d="M783.989 126.577C786.215 127.739 787.745 129.489 788.41 131.639L788.418 131.668C788.711 132.646 788.817 133.67 788.732 134.687L788.723 134.799C788.257 139.557 783.806 144.084 777.647 146.063C773.143 147.515 768.443 147.335 765.074 145.58C762.846 144.42 761.317 142.667 760.652 140.507L760.645 140.484C760.353 139.506 760.247 138.482 760.332 137.465C760.73 132.656 765.185 128.078 771.426 126.06C775.923 124.63 780.618 124.82 783.989 126.577Z" fill="#DF932E"/>
<path d="M756.733 143.48C758.157 146.364 759.503 149.09 762.168 151.019C769.545 156.342 773.997 159.557 773.384 166.966C772.771 174.375 767.85 176.819 759.698 180.865C756.749 182.332 754.97 184.805 753.084 187.423C750.924 190.425 748.692 193.527 744.714 194.617C743.277 195.049 741.77 195.202 740.275 195.067C733.989 194.546 729.279 189.226 729.777 183.211C730.034 180.107 731.383 176.893 732.811 173.491C734.183 170.221 735.602 166.84 735.851 163.836C736.099 160.832 735.255 157.272 734.437 153.833C733.595 150.251 732.791 146.874 733.049 143.761C733.546 137.755 739.065 133.291 745.352 133.813C746.849 133.932 748.31 134.337 749.655 135.006C753.402 136.735 755.096 140.165 756.733 143.48Z" fill="#DF932E"/>
<path d="M777.996 186.011C775.558 183.714 774.339 180.954 774.564 178.241C774.594 177.87 774.652 177.502 774.737 177.14C776.038 171.549 783.237 168.595 791.14 170.415C794.462 171.179 797.487 172.732 799.656 174.778C802.089 177.072 803.306 179.835 803.082 182.547C803.051 182.917 802.993 183.285 802.908 183.647C801.607 189.238 794.408 192.193 786.506 190.372C783.188 189.611 780.167 188.058 777.996 186.011Z" fill="#DF932E"/>
<path d="M776.392 157.151C776.367 156.78 776.371 156.408 776.401 156.038C776.626 153.322 778.282 150.802 781.065 148.938C783.542 147.279 786.777 146.251 790.178 146.04C798.269 145.545 804.884 149.645 805.251 155.375C805.276 155.746 805.272 156.118 805.242 156.489C805.014 159.2 803.359 161.725 800.582 163.587C798.106 165.248 794.867 166.282 791.461 166.486C783.371 166.981 776.756 162.881 776.392 157.151Z" fill="#DF932E"/>
<path d="M756.466 190.989L756.477 190.965C757.487 188.948 759.282 187.472 761.668 186.696C765.287 185.521 769.947 186.115 774.151 188.286C779.97 191.291 783.613 196.539 783.216 201.342C783.133 202.36 782.86 203.352 782.41 204.269L782.399 204.292C781.396 206.305 779.595 207.78 777.208 208.556C773.59 209.731 768.929 209.137 764.725 206.966C758.906 203.961 755.263 198.713 755.661 193.91C755.744 192.894 756.017 191.903 756.466 190.989Z" fill="#DF932E"/>
<path d="M1159.34 40.6629C1160.88 38.6794 1162.88 37.4863 1165.11 37.2147L1165.14 37.2118C1166.16 37.0982 1167.18 37.176 1168.17 37.4413L1168.28 37.4703C1172.87 38.7765 1176.54 43.9626 1177.39 50.3754C1178.01 55.0663 1177 59.659 1174.67 62.6614C1173.13 64.647 1171.13 65.8393 1168.89 66.1086L1168.87 66.1112C1167.85 66.2245 1166.83 66.1467 1165.84 65.8817C1161.18 64.6332 1157.47 59.4339 1156.6 52.9331C1155.99 48.2532 1157.01 43.6665 1159.34 40.6629Z" fill="#DF932E"/>
<path d="M1171.12 70.4944C1174.21 69.6077 1177.13 68.7685 1179.51 66.4904C1186.06 60.1803 1190.01 56.3719 1197.2 58.2955C1204.38 60.2191 1205.9 65.4967 1208.43 74.2393C1209.35 77.4025 1211.47 79.5932 1213.71 81.9154C1216.28 84.5764 1218.93 87.3256 1219.29 91.4336C1219.46 92.9249 1219.35 94.4349 1218.95 95.8818C1217.31 101.975 1211.24 105.661 1205.41 104.099C1202.4 103.293 1199.48 101.393 1196.39 99.3823C1193.41 97.4488 1190.34 95.4501 1187.43 94.6701C1184.52 93.8901 1180.86 94.0869 1177.33 94.2784C1173.66 94.4692 1170.19 94.658 1167.17 93.8498C1161.35 92.2903 1157.94 86.0641 1159.58 79.9712C1159.96 78.5191 1160.62 77.154 1161.52 75.9498C1163.89 72.5702 1167.56 71.515 1171.12 70.4944Z" fill="#DF932E"/>
<path d="M1216.76 57.1507C1214.06 59.1408 1211.13 59.8484 1208.5 59.1438C1208.14 59.0476 1207.79 58.9249 1207.45 58.7767C1202.18 56.5004 1200.55 48.8902 1203.75 41.4386C1205.1 38.3053 1207.16 35.6058 1209.56 33.8364C1212.25 31.8504 1215.19 31.1455 1217.82 31.8496C1218.18 31.9458 1218.53 32.0685 1218.87 32.2167C1224.14 34.493 1225.76 42.1032 1222.56 49.5548C1221.22 52.6835 1219.16 55.3796 1216.76 57.1507Z" fill="#DF932E"/>
<path d="M1188.07 53.5869C1187.7 53.5447 1187.34 53.4753 1186.98 53.3791C1184.35 52.6741 1182.16 50.5958 1180.82 47.5252C1179.63 44.792 1179.2 41.4259 1179.6 38.0413C1180.55 29.9921 1185.76 24.2133 1191.47 24.8728C1191.84 24.9149 1192.2 24.9843 1192.56 25.0805C1195.19 25.7881 1197.38 27.866 1198.72 30.9306C1199.91 33.6625 1200.35 37.0339 1199.94 40.4217C1198.99 48.471 1193.78 54.2497 1188.07 53.5869Z" fill="#DF932E"/>
<path d="M1217.82 79.2236L1217.8 79.2088C1215.99 77.8553 1214.86 75.8262 1214.52 73.3397C1214.01 69.5696 1215.43 65.0896 1218.31 61.3394C1222.3 56.1496 1228.12 53.4997 1232.77 54.7469C1233.76 55.0096 1234.69 55.4554 1235.51 56.061L1235.53 56.0759C1237.33 57.4212 1238.46 59.4571 1238.8 61.9436C1239.31 65.7137 1237.9 70.1937 1235.01 73.9439C1231.02 79.1336 1225.21 81.7835 1220.55 80.5364C1219.57 80.2735 1218.64 79.8282 1217.82 79.2236Z" fill="#DF932E"/>
<path d="M1631.54 161.049C1629.04 161.363 1626.79 160.796 1625.02 159.408L1624.99 159.389C1624.2 158.752 1623.53 157.971 1623.02 157.086L1622.96 156.989C1620.63 152.814 1621.71 146.558 1625.64 141.422C1628.52 137.662 1632.48 135.132 1636.25 134.655C1638.74 134.339 1641 134.908 1642.78 136.304L1642.79 136.319C1643.59 136.957 1644.26 137.738 1644.77 138.622C1647.19 142.801 1646.13 149.101 1642.15 154.315C1639.27 158.053 1635.31 160.572 1631.54 161.049Z" fill="#DF932E"/>
<path d="M1644.3 131.628C1641.49 130.069 1638.83 128.596 1635.54 128.529C1626.45 128.358 1620.96 128.253 1617.24 121.815C1613.52 115.377 1616.17 110.565 1620.56 102.595C1622.15 99.7088 1622.21 96.6635 1622.26 93.4372C1622.33 89.7389 1622.39 85.9178 1625.04 82.7562C1625.98 81.5818 1627.13 80.5976 1628.43 79.8566C1633.9 76.7031 1640.8 78.3918 1643.82 83.6189C1645.37 86.316 1646.1 89.7258 1646.86 93.3343C1647.6 96.8039 1648.36 100.391 1649.87 103.001C1651.37 105.612 1654.09 108.056 1656.73 110.416C1659.46 112.88 1662.04 115.197 1663.61 117.902C1666.62 123.122 1664.63 129.934 1659.16 133.088C1657.87 133.843 1656.44 134.343 1654.95 134.559C1650.88 135.273 1647.54 133.42 1644.3 131.628Z" fill="#DF932E"/>
<path d="M1602.6 108.792C1605.91 109.29 1608.48 110.864 1609.84 113.222C1610.03 113.544 1610.19 113.879 1610.33 114.225C1612.44 119.561 1608.21 126.091 1600.68 129.097C1597.52 130.363 1594.14 130.81 1591.2 130.364C1587.89 129.866 1585.32 128.289 1583.95 125.932C1583.77 125.61 1583.61 125.275 1583.47 124.929C1581.35 119.593 1585.59 113.063 1593.12 110.057C1596.28 108.792 1599.65 108.347 1602.6 108.792Z" fill="#DF932E"/>
<path d="M1620.36 131.595C1620.59 131.886 1620.8 132.193 1620.98 132.515C1622.35 134.875 1622.42 137.889 1621.2 141.007C1620.11 143.782 1618.03 146.469 1615.36 148.581C1608.99 153.597 1601.22 153.998 1597.65 149.498C1597.42 149.207 1597.21 148.9 1597.03 148.578C1595.67 146.219 1595.59 143.201 1596.81 140.089C1597.9 137.314 1599.97 134.618 1602.66 132.51C1609.02 127.494 1616.79 127.094 1620.36 131.595Z" fill="#DF932E"/>
<path d="M1617.45 92.4335L1617.46 92.4592C1617.78 94.6921 1617.14 96.928 1615.62 98.9253C1613.32 101.953 1609.15 104.12 1604.46 104.732C1597.97 105.577 1591.98 103.341 1589.57 99.1665C1589.06 98.2833 1588.72 97.3118 1588.57 96.3027L1588.56 96.277C1588.24 94.0521 1588.88 91.8128 1590.4 89.8155C1592.7 86.7877 1596.87 84.6205 1601.56 84.009C1608.06 83.1636 1614.04 85.4002 1616.45 89.5743C1616.96 90.4562 1617.3 91.4261 1617.45 92.4335Z" fill="#DF932E"/>
</g>
</g>
<defs>
<clipPath id="clip0">
<rect width="125.496" height="125.496" fill="white" transform="translate(0 108.644) rotate(-38.0292)"/>
</clipPath>
<clipPath id="clip1">
<rect width="125.496" height="125.496" fill="white" transform="translate(545.293 -32) rotate(17.4768)"/>
</clipPath>
<clipPath id="clip2">
<rect width="125.496" height="125.496" fill="white" transform="translate(952.837 124.397) rotate(-24.8633)"/>
</clipPath>
<clipPath id="clip3">
<rect width="125.496" height="125.496" fill="white" transform="translate(1803.43 95.6206) rotate(21.7422)"/>
</clipPath>
<clipPath id="clip4">
<rect width="125.496" height="125.496" fill="white" transform="translate(1356.46 -13.7686) rotate(26.6374)"/>
</clipPath>
<clipPath id="clip5">
<rect width="125.496" height="125.496" fill="white" transform="translate(448.299 119.61) rotate(56.6071)"/>
</clipPath>
</defs>
</svg>
