<svg width="1920" height="1080" viewBox="0 0 1920 1080" fill="none" xmlns="http://www.w3.org/2000/svg">
<path d="M0 0H1920V1080H0V0Z" fill="#F7F7F7"/>
<mask id="mask0" mask-type="alpha" maskUnits="userSpaceOnUse" x="0" y="0" width="1920" height="1080">
<rect width="1920" height="1080" fill="#F2F2F2"/>
</mask>
<g mask="url(#mask0)">
<g clip-path="url(#clip0)">
<path d="M266.899 200.426C251.594 212.422 246.601 233.399 254.861 251.005L165.646 320.78C147.792 306.246 121.536 308.936 107 326.79C92.4654 344.643 95.1559 370.9 113.01 385.435C118.497 389.901 125.03 392.898 131.995 394.143C130.47 417.114 147.855 436.97 170.826 438.495C193.796 440.02 213.653 422.634 215.178 399.665C215.646 392.612 214.313 385.555 211.304 379.159L300.518 309.384C318.372 323.919 344.628 321.228 359.164 303.374C373.699 285.52 371.008 259.264 353.154 244.729C347.667 240.262 341.134 237.265 334.169 236.021C335.699 213.053 318.321 193.194 295.353 191.664C285.113 190.981 274.982 194.101 266.899 200.426ZM306.85 251.507C313.035 246.666 320.767 244.238 328.609 244.674C328.649 244.678 328.688 244.686 328.727 244.687C346.6 245.734 360.241 261.072 359.194 278.946C358.148 296.819 342.809 310.46 324.936 309.413C317.048 308.951 309.6 305.624 303.992 300.057C302.336 298.41 299.712 298.253 297.872 299.692L202.536 374.255C200.696 375.694 200.216 378.278 201.416 380.283C210.606 395.649 205.598 415.556 190.232 424.745C174.866 433.934 154.959 428.927 145.77 413.561C142.383 407.898 140.805 401.337 141.247 394.753C149.894 394.362 158.204 391.287 165.022 385.953C167.037 384.377 167.393 381.466 165.817 379.451C164.241 377.436 161.33 377.08 159.315 378.656C153.13 383.497 145.397 385.925 137.556 385.489C137.516 385.485 137.477 385.477 137.438 385.476C119.564 384.429 105.924 369.091 106.97 351.217C108.017 333.344 123.356 319.703 141.229 320.75C149.116 321.212 156.565 324.539 162.172 330.105C163.829 331.753 166.452 331.909 168.293 330.47L263.628 255.908C265.468 254.468 265.949 251.884 264.748 249.88C255.559 234.513 260.566 214.607 275.932 205.417C291.299 196.228 311.205 201.235 320.395 216.601C323.781 222.264 325.359 228.825 324.918 235.409C316.271 235.8 307.96 238.876 301.142 244.209C299.127 245.785 298.771 248.696 300.347 250.711C301.923 252.726 304.835 253.083 306.85 251.507Z" fill="#EAEAEA"/>
<path d="M195.006 356.622L202.303 350.915L208.01 358.212L200.713 363.92L195.006 356.622Z" fill="#EAEAEA"/>
<path d="M209.6 345.208L216.897 339.501L222.605 346.798L215.307 352.505L209.6 345.208Z" fill="#EAEAEA"/>
<path d="M224.195 333.793L246.087 316.672L251.794 323.969L229.902 341.091L224.195 333.793Z" fill="#EAEAEA"/>
</g>
<g clip-path="url(#clip1)">
<path d="M483.926 536.584C489.907 555.088 507.874 567.011 527.248 565.332L561.963 673.14C542.162 684.884 535.629 710.456 547.373 730.259C559.117 750.06 584.69 756.593 604.491 744.849C610.577 741.24 615.643 736.141 619.214 730.033C640.249 739.389 664.884 729.92 674.239 708.886C683.595 687.852 674.126 663.216 653.092 653.861C646.634 650.989 639.551 649.806 632.509 650.424L597.794 542.615C617.595 530.872 624.128 505.299 612.384 485.497C600.64 465.695 575.068 459.163 555.265 470.907C549.18 474.516 544.114 479.614 540.543 485.722C519.513 476.363 494.877 485.824 485.518 506.854C481.345 516.23 480.779 526.815 483.926 536.584ZM545.654 516.707C543.244 509.232 543.632 501.136 546.746 493.926C546.763 493.89 546.785 493.857 546.799 493.82C553.948 477.405 573.05 469.893 589.465 477.041C605.88 484.189 613.392 503.292 606.244 519.707C603.09 526.951 597.398 532.794 590.238 536.138C588.12 537.124 587.068 539.533 587.784 541.756L624.881 656.961C625.598 659.185 627.858 660.527 630.153 660.092C647.747 656.768 664.703 668.335 668.028 685.928C671.352 703.521 659.785 720.478 642.192 723.803C635.709 725.028 629.006 724.245 622.979 721.56C625.594 713.309 625.574 704.448 622.921 696.208C622.137 693.774 619.527 692.435 617.092 693.219C614.657 694.003 613.318 696.613 614.103 699.048C616.513 706.523 616.124 714.619 613.01 721.829C612.993 721.864 612.971 721.898 612.957 721.934C605.808 738.35 586.706 745.862 570.291 738.714C553.876 731.566 546.364 712.463 553.512 696.048C556.666 688.804 562.359 682.96 569.518 679.617C571.636 678.631 572.688 676.222 571.972 673.998L534.874 558.793C534.158 556.57 531.898 555.227 529.603 555.662C512.009 558.987 495.052 547.42 491.728 529.827C488.403 512.233 499.971 495.277 517.563 491.952C524.047 490.727 530.75 491.51 536.777 494.195C534.161 502.446 534.181 511.307 536.835 519.546C537.619 521.981 540.229 523.32 542.664 522.536C545.099 521.752 546.438 519.142 545.654 516.707Z" fill="#EAEAEA"/>
<path d="M605.734 657.947L602.894 649.129L611.712 646.289L614.552 655.107L605.734 657.947Z" fill="#EAEAEA"/>
<path d="M600.055 640.311L597.215 631.493L606.033 628.653L608.873 637.471L600.055 640.311Z" fill="#EAEAEA"/>
<path d="M594.375 622.674L585.857 596.22L594.675 593.38L603.194 619.835L594.375 622.674Z" fill="#EAEAEA"/>
</g>
<g clip-path="url(#clip2)">
<path d="M1164.73 326.762C1146.55 319.866 1126.01 326.44 1115.21 342.613L1009.36 302.335C1012.57 279.537 996.685 258.455 973.887 255.247C951.09 252.038 930.008 267.919 926.8 290.716C925.814 297.723 926.627 304.864 929.164 311.469C908.714 322.043 900.709 347.191 911.282 367.641C921.856 388.09 947.004 396.095 967.453 385.522C973.732 382.276 979.082 377.486 983 371.603L1088.86 411.881C1085.65 434.679 1101.53 455.761 1124.33 458.969C1147.12 462.177 1168.21 446.297 1171.41 423.499C1172.4 416.492 1171.59 409.351 1169.05 402.746C1189.5 392.179 1197.51 367.035 1186.94 346.585C1182.23 337.468 1174.32 330.409 1164.73 326.762ZM1141.67 387.371C1149.01 390.161 1155.09 395.524 1158.77 402.462C1158.79 402.497 1158.8 402.535 1158.82 402.569C1167.17 418.409 1161.09 438.016 1145.25 446.362C1129.41 454.709 1109.81 448.635 1101.46 432.795C1097.77 425.805 1096.77 417.71 1098.64 410.031C1099.19 407.762 1097.97 405.435 1095.78 404.604L982.664 361.562C980.481 360.731 978.021 361.657 976.926 363.721C968.525 379.533 948.898 385.54 933.086 377.14C917.275 368.74 911.267 349.112 919.667 333.301C922.762 327.474 927.562 322.731 933.425 319.704C938.232 326.902 945.162 332.425 953.252 335.503C955.643 336.412 958.319 335.212 959.229 332.821C960.138 330.43 958.938 327.754 956.547 326.844C949.206 324.054 943.128 318.691 939.446 311.754C939.429 311.718 939.416 311.68 939.397 311.646C931.05 295.807 937.125 276.2 952.964 267.853C968.803 259.506 988.41 265.581 996.757 281.42C1000.44 288.41 1001.44 296.506 999.58 304.184C999.026 306.453 1000.25 308.78 1002.43 309.611L1115.55 352.653C1117.73 353.484 1120.19 352.558 1121.29 350.494C1129.69 334.682 1149.32 328.675 1165.13 337.075C1180.94 345.475 1186.95 365.103 1178.55 380.914C1175.45 386.741 1170.65 391.484 1164.79 394.511C1159.98 387.312 1153.05 381.79 1144.96 378.712C1142.57 377.802 1139.9 379.003 1138.99 381.394C1138.08 383.785 1139.28 386.461 1141.67 387.371Z" fill="#EAEAEA"/>
<path d="M993.862 345.999L1002.52 349.293L999.226 357.952L990.568 354.657L993.862 345.999Z" fill="#EAEAEA"/>
<path d="M1011.18 352.588L1019.84 355.882L1016.54 364.541L1007.88 361.246L1011.18 352.588Z" fill="#EAEAEA"/>
<path d="M1028.5 359.177L1054.47 369.061L1051.18 377.719L1025.2 367.835L1028.5 359.177Z" fill="#EAEAEA"/>
</g>
<g clip-path="url(#clip3)">
<path d="M1805.94 345.437C1797.25 328.042 1777.69 318.953 1758.79 323.524L1708.27 222.153C1726.09 207.568 1728.7 181.305 1714.12 163.492C1699.53 145.679 1673.27 143.062 1655.46 157.647C1649.98 162.13 1645.74 167.931 1643.13 174.506C1620.92 168.417 1597.99 181.479 1591.9 203.68C1585.81 225.881 1598.87 248.814 1621.07 254.903C1627.89 256.773 1635.07 256.878 1641.94 255.21L1692.46 356.58C1674.65 371.165 1672.03 397.428 1686.61 415.242C1701.2 433.055 1727.46 435.671 1745.28 421.086C1750.75 416.603 1754.99 410.802 1757.61 404.227C1779.8 410.32 1802.74 397.266 1808.83 375.069C1811.55 365.173 1810.52 354.622 1805.94 345.437ZM1747.9 374.362C1751.4 381.39 1752.24 389.452 1750.24 397.048C1750.23 397.086 1750.21 397.122 1750.2 397.161C1745.6 414.463 1727.85 424.76 1710.54 420.159C1693.24 415.558 1682.94 397.8 1687.54 380.498C1689.58 372.862 1694.32 366.23 1700.9 361.849C1702.85 360.556 1703.53 358.016 1702.48 355.925L1648.5 247.6C1647.46 245.509 1645.02 244.522 1642.82 245.297C1625.92 251.227 1607.42 242.338 1601.49 225.444C1595.56 208.55 1604.45 190.048 1621.34 184.118C1627.57 181.933 1634.31 181.7 1640.68 183.449C1639.33 192 1640.68 200.757 1644.54 208.504C1645.68 210.794 1648.47 211.725 1650.75 210.584C1653.04 209.443 1653.98 206.662 1652.83 204.372C1649.33 197.344 1648.5 189.282 1650.49 181.686C1650.5 181.648 1650.52 181.611 1650.53 181.573C1655.13 164.27 1672.89 153.974 1690.19 158.575C1707.49 163.176 1717.79 180.934 1713.19 198.236C1711.16 205.872 1706.41 212.504 1699.83 216.885C1697.89 218.178 1697.21 220.717 1698.25 222.809L1752.23 331.133C1753.28 333.224 1755.71 334.212 1757.92 333.437C1774.81 327.507 1793.31 336.396 1799.24 353.289C1805.17 370.184 1796.28 388.686 1779.39 394.615C1773.16 396.801 1766.42 397.034 1760.06 395.285C1761.4 386.734 1760.05 377.977 1756.19 370.229C1755.05 367.94 1752.27 367.009 1749.98 368.15C1747.69 369.291 1746.76 372.072 1747.9 374.362Z" fill="#EAEAEA"/>
<path d="M1667.28 243.75L1671.41 252.041L1663.12 256.173L1658.99 247.882L1667.28 243.75Z" fill="#EAEAEA"/>
<path d="M1675.55 260.333L1679.68 268.624L1671.39 272.756L1667.25 264.465L1675.55 260.333Z" fill="#EAEAEA"/>
<path d="M1683.81 276.916L1696.21 301.79L1687.92 305.922L1675.52 281.048L1683.81 276.916Z" fill="#EAEAEA"/>
</g>
<g clip-path="url(#clip4)">
<path d="M1011.03 838.02C991.929 841.648 977.86 857.988 977.112 877.421L865.818 898.431C856.633 877.321 832.074 867.652 810.963 876.837C789.852 886.021 780.184 910.581 789.368 931.692C792.191 938.179 796.618 943.842 802.234 948.146C790.33 967.851 796.655 993.474 816.359 1005.38C836.064 1017.28 861.687 1010.96 873.59 991.252C877.245 985.202 879.301 978.322 879.566 971.258L990.86 950.248C1000.04 971.358 1024.6 981.027 1045.72 971.842C1066.83 962.657 1076.49 938.098 1067.31 916.987C1064.49 910.499 1060.06 904.837 1054.44 900.532C1066.35 880.833 1060.03 855.21 1040.33 843.304C1031.55 837.994 1021.12 836.113 1011.03 838.02ZM1023.06 901.743C1030.78 900.283 1038.77 901.677 1045.53 905.666C1045.56 905.687 1045.6 905.712 1045.63 905.731C1061.03 914.87 1066.1 934.759 1056.96 950.155C1047.82 965.552 1027.93 970.625 1012.54 961.487C1005.74 957.454 1000.65 951.078 998.229 943.558C997.514 941.334 995.255 939.989 992.96 940.423L874.03 962.875C871.734 963.308 870.121 965.384 870.266 967.715C871.373 985.586 857.782 1000.97 839.913 1002.08C822.043 1003.18 806.659 989.592 805.552 971.722C805.145 965.136 806.757 958.583 810.172 952.937C818.033 956.561 826.827 957.645 835.333 956.039C837.847 955.564 839.5 953.142 839.025 950.628C838.551 948.114 836.128 946.461 833.615 946.936C825.898 948.395 817.913 947.001 811.148 943.013C811.114 942.991 811.084 942.966 811.049 942.947C795.653 933.808 790.58 913.919 799.718 898.523C808.856 883.126 828.746 878.053 844.142 887.191C850.936 891.224 856.025 897.6 858.45 905.12C859.164 907.344 861.423 908.688 863.719 908.255L982.649 885.802C984.945 885.369 986.558 883.294 986.412 880.962C985.306 863.091 998.896 847.708 1016.77 846.602C1034.64 845.496 1050.02 859.086 1051.13 876.956C1051.53 883.541 1049.92 890.095 1046.51 895.74C1038.65 892.117 1029.85 891.032 1021.35 892.639C1018.83 893.113 1017.18 895.536 1017.65 898.05C1018.13 900.563 1020.55 902.217 1023.06 901.743Z" fill="#EAEAEA"/>
<path d="M875.438 943.754L884.541 942.035L886.26 951.139L877.157 952.857L875.438 943.754Z" fill="#EAEAEA"/>
<path d="M893.645 940.317L902.748 938.598L904.466 947.701L895.363 949.42L893.645 940.317Z" fill="#EAEAEA"/>
<path d="M911.851 936.88L939.161 931.724L940.88 940.827L913.57 945.983L911.851 936.88Z" fill="#EAEAEA"/>
</g>
<g clip-path="url(#clip5)">
<path d="M205.015 889.636C187.907 880.391 166.68 884.185 153.834 898.785L54.2501 844.832C60.4512 822.661 47.5053 799.661 25.3336 793.459C3.16264 787.258 -19.8383 800.204 -26.0394 822.375C-27.945 829.189 -28.0854 836.375 -26.4468 843.258C-48.1172 851.028 -59.385 874.894 -51.6154 896.564C-43.8452 918.235 -19.9793 929.502 1.69022 921.732C8.34381 919.347 14.2815 915.308 18.9452 909.996L118.529 963.949C112.328 986.12 125.274 1009.12 147.446 1015.32C169.618 1021.52 192.618 1008.58 198.819 986.405C200.725 979.592 200.865 972.406 199.227 965.523C220.896 957.759 232.169 933.898 224.405 912.228C220.944 902.567 214.04 894.523 205.015 889.636ZM174.124 946.654C181.031 950.393 186.344 956.514 189.074 963.878C189.086 963.916 189.094 963.955 189.108 963.991C195.282 980.798 186.663 999.426 169.857 1005.6C153.051 1011.77 134.422 1003.15 128.248 986.349C125.524 978.932 125.601 970.775 128.467 963.411C129.317 961.235 128.413 958.767 126.359 957.654L19.943 900C17.8888 898.887 15.3275 899.478 13.9686 901.379C3.54684 915.938 -16.7039 919.291 -31.2625 908.87C-45.8211 898.448 -49.175 878.197 -38.7535 863.639C-34.913 858.273 -29.5266 854.208 -23.3141 851.985C-19.5041 859.757 -13.3673 866.149 -5.75614 870.272C-3.50697 871.491 -0.695444 870.655 0.523101 868.406C1.74165 866.157 0.906042 863.345 -1.34312 862.127C-8.24981 858.388 -13.5628 852.267 -16.2926 844.903C-16.3051 844.865 -16.3129 844.826 -16.3275 844.79C-22.5013 827.984 -13.8818 809.355 2.92393 803.181C19.7297 797.007 38.3588 805.627 44.5328 822.432C47.2573 829.849 47.1796 838.006 44.3139 845.369C43.4641 847.546 44.3677 850.014 46.4218 851.127L152.838 908.781C154.892 909.894 157.454 909.302 158.813 907.402C169.234 892.843 189.485 889.489 204.044 899.911C218.603 910.333 221.956 930.584 211.535 945.142C207.694 950.507 202.308 954.573 196.095 956.796C192.285 949.024 186.148 942.631 178.537 938.508C176.288 937.29 173.477 938.126 172.258 940.375C171.039 942.624 171.874 945.436 174.124 946.654Z" fill="#EAEAEA"/>
<path d="M33.1044 886.058L41.2499 890.471L36.8369 898.616L28.6914 894.203L33.1044 886.058Z" fill="#EAEAEA"/>
<path d="M49.3953 894.884L57.5408 899.297L53.1278 907.442L44.9823 903.029L49.3953 894.884Z" fill="#EAEAEA"/>
<path d="M65.6863 903.71L90.1226 916.949L85.7096 925.094L61.2733 911.855L65.6863 903.71Z" fill="#EAEAEA"/>
</g>
<g clip-path="url(#clip6)">
<path d="M2056.5 942.403C2040.15 931.885 2018.69 934.055 2004.78 947.636L1909.58 886.272C1917.45 864.636 1906.29 840.719 1884.65 832.85C1863.01 824.982 1839.1 836.143 1831.23 857.779C1828.81 864.428 1828.12 871.583 1829.23 878.57C1807.04 884.671 1793.99 907.612 1800.09 929.81C1806.19 952.008 1829.13 965.057 1851.33 958.956C1858.14 957.083 1864.37 953.507 1869.42 948.565L1964.62 1009.93C1956.75 1031.56 1967.91 1055.48 1989.55 1063.35C2011.19 1071.22 2035.1 1060.06 2042.97 1038.42C2045.39 1031.77 2046.08 1024.62 2044.96 1017.63C2067.16 1011.54 2080.22 988.601 2074.12 966.404C2071.4 956.508 2065.13 947.962 2056.5 942.403ZM2021.37 996.909C2027.97 1001.16 2032.8 1007.67 2034.97 1015.22C2034.98 1015.26 2034.98 1015.3 2034.99 1015.33C2039.87 1032.56 2029.86 1050.48 2012.63 1055.36C1995.41 1060.24 1977.49 1050.23 1972.61 1033C1970.46 1025.4 1971.15 1017.27 1974.57 1010.15C1975.58 1008.04 1974.87 1005.51 1972.91 1004.25L1871.18 938.673C1869.22 937.407 1866.62 937.802 1865.12 939.594C1853.62 953.319 1833.17 955.124 1819.45 943.626C1805.72 932.129 1803.92 911.681 1815.42 897.957C1819.65 892.899 1825.33 889.255 1831.7 887.51C1834.9 895.549 1840.54 902.389 1847.81 907.079C1849.96 908.465 1852.83 907.845 1854.22 905.695C1855.6 903.545 1854.98 900.678 1852.83 899.292C1846.23 895.039 1841.4 888.532 1839.23 880.982C1839.23 880.944 1839.22 880.904 1839.21 880.867C1834.33 863.64 1844.34 845.72 1861.57 840.841C1878.79 835.962 1896.71 845.972 1901.59 863.199C1903.74 870.801 1903.05 878.929 1899.63 886.053C1898.62 888.158 1899.33 890.688 1901.29 891.954L2003.02 957.528C2004.99 958.793 2007.58 958.399 2009.08 956.607C2020.58 942.882 2041.03 941.077 2054.75 952.575C2068.48 964.073 2070.28 984.52 2058.79 998.244C2054.55 1003.3 2048.87 1006.95 2042.51 1008.69C2039.3 1000.65 2033.66 993.812 2026.39 989.122C2024.24 987.736 2021.37 988.356 2019.99 990.506C2018.6 992.656 2019.22 995.523 2021.37 996.909Z" fill="#EAEAEA"/>
<path d="M1885.36 925.772L1893.15 930.791L1888.13 938.577L1880.34 933.558L1885.36 925.772Z" fill="#EAEAEA"/>
<path d="M1900.93 935.81L1908.72 940.829L1903.7 948.616L1895.92 943.597L1900.93 935.81Z" fill="#EAEAEA"/>
<path d="M1916.51 945.849L1939.87 960.906L1934.85 968.693L1911.49 953.635L1916.51 945.849Z" fill="#EAEAEA"/>
</g>
</g>
<defs>
<clipPath id="clip0">
<rect width="277.942" height="277.942" fill="white" transform="translate(38.0001 291.229) rotate(-38.0292)"/>
</clipPath>
<clipPath id="clip1">
<rect width="277.942" height="277.942" fill="white" transform="translate(490.193 782.756) rotate(-107.849)"/>
</clipPath>
<clipPath id="clip2">
<rect width="277.942" height="277.942" fill="white" transform="translate(968.643 177.8) rotate(20.8318)"/>
</clipPath>
<clipPath id="clip3">
<rect width="277.942" height="277.942" fill="white" transform="translate(1762.76 103) rotate(63.5109)"/>
</clipPath>
<clipPath id="clip4">
<rect width="277.942" height="277.942" fill="white" transform="translate(766 813.561) rotate(-10.6908)"/>
</clipPath>
<clipPath id="clip5">
<rect width="277.942" height="277.942" fill="white" transform="translate(30.3997 716) rotate(28.4478)"/>
</clipPath>
<clipPath id="clip6">
<rect width="277.942" height="277.942" fill="white" transform="translate(1895.59 756) rotate(32.806)"/>
</clipPath>
</defs>
</svg>
