<svg width="1920" height="345" viewBox="0 0 1920 345" fill="none" xmlns="http://www.w3.org/2000/svg">
<rect width="1920" height="345" fill="#F4A52C"/>
<g style="mix-blend-mode:luminosity">
<mask id="mask0" mask-type="alpha" maskUnits="userSpaceOnUse" x="0" y="0" width="1920" height="345">
<rect width="1920" height="345" fill="#F4A52C"/>
</mask>
<g mask="url(#mask0)">
<g clip-path="url(#clip0)">
<path d="M103.353 99.6443C96.4421 105.061 94.1876 114.533 97.9169 122.482L57.6346 153.987C49.5732 147.424 37.718 148.639 31.1551 156.7C24.5922 164.761 25.807 176.617 33.8684 183.18C36.3458 185.196 39.2956 186.55 42.4404 187.112C41.752 197.483 49.6019 206.449 59.9735 207.138C70.3452 207.826 79.311 199.976 79.9993 189.605C80.2106 186.42 79.6087 183.234 78.2501 180.346L118.532 148.841C126.594 155.404 138.449 154.189 145.012 146.128C151.575 138.066 150.36 126.211 142.298 119.648C139.821 117.631 136.871 116.278 133.726 115.716C134.417 105.346 126.57 96.379 116.2 95.6882C111.577 95.3799 107.002 96.7887 103.353 99.6443ZM121.391 122.708C124.184 120.523 127.675 119.426 131.216 119.623C131.234 119.625 131.251 119.629 131.269 119.629C139.339 120.102 145.498 127.027 145.026 135.098C144.553 143.168 137.628 149.327 129.557 148.854C125.996 148.646 122.633 147.144 120.101 144.63C119.353 143.886 118.168 143.815 117.337 144.465L74.2914 178.132C73.4604 178.782 73.2436 179.948 73.7856 180.853C77.9349 187.792 75.6738 196.78 68.7357 200.929C61.7977 205.078 52.8093 202.817 48.6602 195.879C47.1311 193.322 46.4187 190.36 46.6179 187.387C50.5222 187.211 54.2744 185.822 57.3529 183.414C58.2627 182.702 58.4234 181.388 57.7119 180.478C57.0003 179.568 55.6858 179.407 54.776 180.119C51.9836 182.305 48.492 183.401 44.9513 183.204C44.9334 183.203 44.9158 183.199 44.8982 183.198C36.8279 182.725 30.6689 175.8 31.1415 167.73C31.614 159.66 38.5397 153.501 46.6099 153.973C50.1713 154.182 53.5343 155.684 56.0662 158.197C56.8141 158.941 57.9988 159.012 58.8298 158.362L101.876 124.696C102.707 124.046 102.923 122.879 102.381 121.974C98.2321 115.035 100.493 106.047 107.431 101.898C114.37 97.7488 123.358 100.01 127.507 106.948C129.036 109.505 129.748 112.467 129.549 115.44C125.645 115.617 121.893 117.005 118.814 119.413C117.904 120.125 117.744 121.439 118.455 122.349C119.167 123.259 120.481 123.42 121.391 122.708Z" fill="#DF932E"/>
<path d="M70.8912 170.17L74.1861 167.593L76.763 170.888L73.4682 173.465L70.8912 170.17Z" fill="#DF932E"/>
<path d="M77.481 165.016L80.7758 162.439L83.3528 165.734L80.0579 168.311L77.481 165.016Z" fill="#DF932E"/>
<path d="M84.0707 159.863L93.9553 152.132L96.5322 155.427L86.6476 163.157L84.0707 159.863Z" fill="#DF932E"/>
</g>
<g clip-path="url(#clip1)">
<path d="M637.615 61.9627C629.237 59.3348 620.154 62.8406 615.714 70.416L566.936 55.0578C567.779 44.6972 560.064 35.6142 549.704 34.7705C539.343 33.9267 530.26 41.6419 529.416 52.0025C529.157 55.1866 529.712 58.3841 531.03 61.2942C522.092 66.6006 519.148 78.1479 524.454 87.0859C529.761 96.024 541.308 98.9679 550.246 93.6617C552.99 92.0324 555.275 89.7319 556.886 86.9767L605.664 102.335C604.821 112.695 612.536 121.778 622.897 122.622C633.258 123.466 642.34 115.751 643.184 105.39C643.443 102.206 642.888 99.0083 641.57 96.0981C650.508 90.7946 653.455 79.2493 648.151 70.311C645.787 66.3258 642.035 63.3534 637.615 61.9627ZM628.822 89.8915C632.204 90.9552 635.085 93.212 636.928 96.2417C636.937 96.2573 636.944 96.274 636.954 96.2888C641.134 103.208 638.914 112.206 631.995 116.387C625.076 120.568 616.078 118.348 611.897 111.429C610.052 108.375 609.386 104.753 610.023 101.243C610.213 100.205 609.6 99.1884 608.594 98.8716L556.469 82.4598C555.463 82.143 554.378 82.6252 553.939 83.5844C550.571 90.9335 541.882 94.1601 534.533 90.7916C527.185 87.4231 523.958 78.7347 527.326 71.3858C528.568 68.6776 530.606 66.4127 533.169 64.8934C535.525 68.0112 538.795 70.3173 542.523 71.4908C543.625 71.8377 544.799 71.2257 545.146 70.124C545.493 69.0223 544.881 67.8479 543.779 67.501C540.396 66.4373 537.515 64.1806 535.672 61.1509C535.664 61.1352 535.657 61.1186 535.647 61.1037C531.467 54.1846 533.686 45.1864 540.605 41.0056C547.524 36.8247 556.523 39.0447 560.704 45.9637C562.549 49.0171 563.215 52.6396 562.577 56.1496C562.388 57.1874 563 58.2039 564.007 58.5207L616.132 74.9325C617.138 75.2493 618.223 74.7671 618.662 73.8079C622.03 66.4588 630.719 63.2322 638.067 66.6007C645.417 69.9692 648.643 78.6576 645.275 86.0065C644.033 88.7147 641.995 90.9796 639.432 92.4989C637.076 89.3811 633.806 87.075 630.078 85.9015C628.976 85.5546 627.802 86.1666 627.455 87.2683C627.108 88.37 627.72 89.5446 628.822 89.8915Z" fill="#DF932E"/>
<path d="M561.105 75.1488L565.095 76.405L563.839 80.3948L559.849 79.1386L561.105 75.1488Z" fill="#DF932E"/>
<path d="M569.085 77.6612L573.075 78.9174L571.818 82.9073L567.829 81.651L569.085 77.6612Z" fill="#DF932E"/>
<path d="M577.064 80.1736L589.034 83.9423L587.778 87.9321L575.808 84.1635L577.064 80.1736Z" fill="#DF932E"/>
</g>
<g clip-path="url(#clip2)">
<path d="M1062.81 140.016C1054.85 143.716 1050.5 152.425 1052.32 161.015L1005.92 182.517C999.563 174.29 987.743 172.773 979.517 179.127C971.29 185.482 969.773 197.302 976.127 205.529C978.08 208.057 980.644 210.046 983.578 211.31C980.546 221.252 986.147 231.77 996.089 234.803C1006.03 237.836 1016.55 232.234 1019.58 222.292C1020.51 219.24 1020.65 216 1019.99 212.879L1066.39 191.377C1072.74 199.603 1084.56 201.121 1092.79 194.766C1101.02 188.411 1102.53 176.591 1096.18 168.365C1094.22 165.836 1091.66 163.847 1088.73 162.583C1091.76 152.643 1086.16 142.125 1076.22 139.09C1071.79 137.737 1067.02 138.066 1062.81 140.016ZM1075.12 166.582C1078.34 165.09 1081.99 164.818 1085.39 165.816C1085.41 165.822 1085.43 165.829 1085.44 165.834C1093.19 168.132 1097.61 176.279 1095.31 184.029C1093.02 191.779 1084.87 196.199 1077.12 193.901C1073.7 192.887 1070.77 190.658 1068.87 187.634C1068.31 186.739 1067.18 186.4 1066.22 186.844L1016.64 209.821C1015.68 210.264 1015.2 211.351 1015.53 212.356C1017.98 220.057 1013.74 228.294 1006.04 230.753C998.335 233.213 990.097 228.965 987.638 221.264C986.731 218.426 986.712 215.379 987.583 212.53C991.425 213.247 995.395 212.749 998.941 211.106C999.989 210.62 1000.45 209.377 999.959 208.329C999.474 207.281 998.23 206.825 997.182 207.311C993.966 208.803 990.316 209.075 986.913 208.077C986.896 208.071 986.88 208.064 986.863 208.059C979.112 205.761 974.693 197.614 976.991 189.864C979.289 182.114 987.436 177.694 995.186 179.992C998.607 181.006 1001.54 183.235 1003.43 186.259C1003.99 187.154 1005.13 187.493 1006.09 187.049L1055.67 164.072C1056.63 163.629 1057.1 162.542 1056.78 161.537C1054.32 153.836 1058.57 145.599 1066.27 143.139C1073.97 140.679 1082.21 144.928 1084.67 152.629C1085.57 155.467 1085.59 158.514 1084.72 161.363C1080.88 160.646 1076.91 161.143 1073.36 162.787C1072.32 163.272 1071.86 164.516 1072.35 165.564C1072.83 166.612 1074.07 167.068 1075.12 166.582Z" fill="#DF932E"/>
<path d="M1015.14 201.294L1018.94 199.535L1020.69 203.331L1016.9 205.089L1015.14 201.294Z" fill="#DF932E"/>
<path d="M1022.73 197.777L1026.53 196.018L1028.28 199.813L1024.49 201.572L1022.73 197.777Z" fill="#DF932E"/>
<path d="M1030.32 194.259L1041.71 188.983L1043.47 192.778L1032.08 198.054L1030.32 194.259Z" fill="#DF932E"/>
</g>
<g clip-path="url(#clip3)">
<path d="M1890.89 196.278C1882.73 193.035 1873.41 195.855 1868.42 203.079L1820.92 184.136C1822.53 173.867 1815.51 164.235 1805.24 162.623C1794.97 161.011 1785.34 168.029 1783.73 178.298C1783.24 181.454 1783.55 184.684 1784.65 187.684C1775.34 192.311 1771.55 203.608 1776.17 212.915C1780.8 222.223 1792.1 226.018 1801.4 221.391C1804.26 219.971 1806.71 217.847 1808.52 215.219L1856.02 234.162C1854.41 244.432 1861.43 254.063 1871.7 255.675C1881.97 257.287 1891.6 250.269 1893.21 240C1893.71 236.844 1893.39 233.614 1892.29 230.614C1901.6 225.989 1905.4 214.695 1900.78 205.387C1898.71 201.237 1895.19 197.994 1890.89 196.278ZM1880.04 223.476C1883.34 224.788 1886.04 227.253 1887.65 230.411C1887.66 230.428 1887.67 230.445 1887.68 230.46C1891.33 237.671 1888.45 246.479 1881.24 250.134C1874.03 253.789 1865.22 250.906 1861.56 243.695C1859.95 240.513 1859.56 236.851 1860.45 233.397C1860.72 232.377 1860.18 231.317 1859.2 230.927L1808.44 210.683C1807.46 210.293 1806.35 210.693 1805.84 211.617C1801.93 218.695 1793.03 221.266 1785.95 217.361C1778.87 213.455 1776.3 204.55 1780.21 197.472C1781.64 194.864 1783.85 192.757 1786.51 191.433C1788.63 194.717 1791.72 197.26 1795.35 198.708C1796.42 199.135 1797.64 198.612 1798.07 197.54C1798.5 196.467 1797.97 195.25 1796.9 194.822C1793.61 193.51 1790.9 191.045 1789.29 187.887C1789.28 187.87 1789.28 187.853 1789.27 187.838C1785.61 180.627 1788.5 171.819 1795.71 168.164C1802.92 164.509 1811.73 167.393 1815.38 174.603C1816.99 177.785 1817.39 181.447 1816.49 184.9C1816.23 185.921 1816.76 186.98 1817.74 187.371L1868.5 207.614C1869.48 208.005 1870.6 207.605 1871.11 206.681C1875.01 199.603 1883.92 197.031 1891 200.937C1898.07 204.843 1900.65 213.747 1896.74 220.825C1895.3 223.434 1893.1 225.541 1890.43 226.865C1888.31 223.581 1885.22 221.038 1881.59 219.59C1880.52 219.162 1879.3 219.685 1878.88 220.758C1878.45 221.831 1878.97 223.048 1880.04 223.476Z" fill="#DF932E"/>
<path d="M1813.61 203.737L1817.5 205.287L1815.95 209.172L1812.06 207.623L1813.61 203.737Z" fill="#DF932E"/>
<path d="M1821.38 206.836L1825.27 208.386L1823.72 212.271L1819.83 210.722L1821.38 206.836Z" fill="#DF932E"/>
<path d="M1829.15 209.935L1840.81 214.584L1839.26 218.469L1827.6 213.821L1829.15 209.935Z" fill="#DF932E"/>
</g>
<g clip-path="url(#clip4)">
<path d="M1437.74 94.1019C1429.89 90.1736 1420.36 92.1887 1414.77 98.9607L1369.06 76.0327C1371.54 65.9385 1365.37 55.7431 1355.28 53.2607C1345.19 50.7782 1334.99 56.949 1332.51 67.0432C1331.75 70.1454 1331.78 73.3905 1332.62 76.4733C1322.95 80.2891 1318.21 91.2204 1322.02 100.889C1325.84 110.558 1336.77 115.303 1346.44 111.487C1349.41 110.315 1352.03 108.408 1354.06 105.944L1399.77 128.872C1397.29 138.967 1403.46 149.162 1413.55 151.644C1423.65 154.127 1433.84 147.956 1436.33 137.862C1437.09 134.759 1437.05 131.514 1436.21 128.432C1445.88 124.619 1450.63 113.69 1446.81 104.021C1445.11 99.7103 1441.88 96.1785 1437.74 94.1019ZM1424.61 120.275C1427.78 121.863 1430.27 124.55 1431.61 127.834C1431.61 127.851 1431.62 127.869 1431.62 127.885C1434.65 135.381 1431.03 143.911 1423.53 146.937C1416.03 149.963 1407.5 146.339 1404.48 138.843C1403.14 135.535 1403.06 131.852 1404.25 128.488C1404.6 127.494 1404.16 126.393 1403.21 125.92L1354.37 101.419C1353.42 100.946 1352.28 101.249 1351.69 102.126C1347.19 108.845 1338.1 110.648 1331.38 106.152C1324.67 101.657 1322.86 92.5654 1327.36 85.8465C1329.02 83.3705 1331.39 81.4589 1334.16 80.3671C1335.99 83.8203 1338.85 86.6175 1342.35 88.3695C1343.38 88.8874 1344.63 88.4702 1345.15 87.4378C1345.67 86.4053 1345.25 85.1484 1344.22 84.6306C1341.05 83.0419 1338.57 80.3553 1337.23 77.0708C1337.22 77.054 1337.22 77.0365 1337.21 77.0203C1334.18 69.5238 1337.81 60.9938 1345.31 57.9678C1352.8 54.9418 1361.33 58.5661 1364.36 66.0624C1365.69 69.3706 1365.77 73.0529 1364.59 76.4168C1364.23 77.411 1364.68 78.5121 1365.62 78.9851L1414.47 103.486C1415.41 103.959 1416.56 103.656 1417.14 102.779C1421.64 96.0594 1430.73 94.2572 1437.45 98.7526C1444.17 103.248 1445.97 112.339 1441.48 119.058C1439.82 121.534 1437.45 123.446 1434.67 124.538C1432.84 121.085 1429.98 118.287 1426.49 116.535C1425.46 116.018 1424.2 116.435 1423.68 117.467C1423.16 118.5 1423.58 119.757 1424.61 120.275Z" fill="#DF932E"/>
<path d="M1360.11 94.9392L1363.85 96.8146L1361.97 100.554L1358.23 98.6781L1360.11 94.9392Z" fill="#DF932E"/>
<path d="M1367.59 98.6899L1371.32 100.565L1369.45 104.304L1365.71 102.429L1367.59 98.6899Z" fill="#DF932E"/>
<path d="M1375.06 102.441L1386.28 108.067L1384.41 111.806L1373.19 106.18L1375.06 102.441Z" fill="#DF932E"/>
</g>
<g clip-path="url(#clip5)">
<path d="M480.811 257.938C475.97 250.612 466.712 247.6 458.488 250.674L430.342 207.977C437.534 200.473 437.282 188.558 429.777 181.365C422.273 174.172 410.358 174.424 403.165 181.929C400.955 184.235 399.368 187.066 398.553 190.155C388.271 188.631 378.7 195.73 377.176 206.012C375.651 216.294 382.751 225.865 393.033 227.39C396.19 227.858 399.414 227.515 402.402 226.394L430.548 269.092C423.355 276.596 423.608 288.511 431.112 295.704C438.617 302.897 450.531 302.644 457.724 295.139C459.935 292.833 461.522 290.002 462.336 286.913C472.617 288.44 482.189 281.344 483.716 271.063C484.397 266.48 483.362 261.806 480.811 257.938ZM456.364 274.053C458.317 277.013 459.128 280.582 458.645 284.095C458.642 284.113 458.637 284.13 458.635 284.148C457.511 292.153 450.111 297.732 442.105 296.609C434.1 295.486 428.52 288.085 429.644 280.079C430.14 276.546 431.909 273.316 434.619 270.995C435.421 270.31 435.587 269.135 435.006 268.254L404.929 222.628C404.349 221.747 403.203 221.437 402.257 221.904C395.006 225.478 386.23 222.498 382.656 215.248C379.081 207.997 382.061 199.221 389.312 195.646C391.984 194.328 394.994 193.858 397.941 194.297C397.801 198.202 398.882 202.055 401.034 205.318C401.669 206.282 402.967 206.549 403.931 205.913C404.895 205.277 405.162 203.98 404.526 203.016C402.573 200.056 401.763 196.487 402.245 192.974C402.248 192.956 402.253 192.939 402.255 192.921C403.379 184.915 410.779 179.336 418.785 180.46C426.791 181.583 432.37 188.984 431.246 196.99C430.751 200.522 428.982 203.753 426.272 206.074C425.47 206.759 425.303 207.934 425.884 208.815L455.961 254.441C456.542 255.322 457.687 255.632 458.633 255.165C465.884 251.59 474.66 254.57 478.235 261.821C481.81 269.072 478.83 277.848 471.579 281.423C468.907 282.74 465.896 283.211 462.949 282.772C463.089 278.866 462.008 275.014 459.857 271.751C459.221 270.787 457.924 270.52 456.959 271.156C455.995 271.792 455.728 273.089 456.364 274.053Z" fill="#DF932E"/>
<path d="M413.14 219.882L415.442 223.375L411.949 225.677L409.647 222.184L413.14 219.882Z" fill="#DF932E"/>
<path d="M417.744 226.867L420.046 230.359L416.554 232.662L414.252 229.169L417.744 226.867Z" fill="#DF932E"/>
<path d="M422.348 233.852L429.255 244.329L425.762 246.631L418.856 236.154L422.348 233.852Z" fill="#DF932E"/>
</g>
<path d="M243.156 120.991C242.686 118.524 243.11 116.239 244.383 114.383L244.401 114.358C244.986 113.522 245.723 112.803 246.574 112.239L246.667 112.177C250.687 109.591 256.999 110.272 262.372 113.874C266.306 116.505 269.081 120.303 269.795 124.034C270.268 126.501 269.841 128.788 268.56 130.649L268.546 130.669C267.961 131.505 267.223 132.224 266.373 132.788C262.355 135.46 256 134.807 250.546 131.164C246.634 128.525 243.87 124.724 243.156 120.991Z" fill="#DF932E"/>
<path d="M273.323 131.878C274.702 128.972 276.004 126.225 275.864 122.939C275.462 113.851 275.22 108.365 281.411 104.248C287.602 100.132 292.572 102.475 300.803 106.358C303.783 107.76 306.826 107.621 310.049 107.475C313.744 107.307 317.562 107.133 320.884 109.576C322.115 110.435 323.17 111.522 323.992 112.778C327.483 118.031 326.233 125.026 321.207 128.368C318.613 130.092 315.255 131.028 311.702 132.019C308.286 132.971 304.754 133.956 302.244 135.625C299.734 137.294 297.466 140.165 295.276 142.94C292.989 145.824 290.84 148.549 288.239 150.278C283.22 153.615 276.295 152.056 272.803 146.802C271.968 145.554 271.379 144.158 271.069 142.688C270.1 138.675 271.739 135.22 273.323 131.878Z" fill="#DF932E"/>
<path d="M293.485 88.8144C293.196 92.1522 291.788 94.8203 289.521 96.328C289.211 96.5338 288.887 96.7164 288.55 96.8742C283.358 99.3233 276.574 95.5105 273.099 88.1834C271.636 85.1042 270.978 81.7681 271.237 78.7977C271.526 75.4663 272.938 72.7977 275.204 71.2909C275.514 71.0851 275.838 70.9025 276.175 70.7447C281.367 68.2957 288.15 72.1084 291.625 79.4355C293.087 82.5094 293.743 85.8426 293.485 88.8144Z" fill="#DF932E"/>
<path d="M271.847 107.979C271.572 108.228 271.278 108.457 270.968 108.663C268.699 110.171 265.696 110.436 262.507 109.41C259.669 108.497 256.856 106.598 254.58 104.061C249.172 98.0231 248.283 90.2915 252.548 86.4484C252.824 86.1991 253.118 85.9706 253.428 85.7648C255.696 84.2609 258.703 83.9918 261.886 85.0151C264.724 85.926 267.545 87.8243 269.818 90.3692C275.226 96.4072 276.115 104.139 271.847 107.979Z" fill="#DF932E"/>
<path d="M310.747 102.611L310.722 102.618C308.514 103.077 306.242 102.585 304.153 101.195C300.986 99.0863 298.561 95.0627 297.655 90.4186C296.402 83.9908 298.257 77.8776 302.27 75.2089C303.12 74.6426 304.068 74.241 305.065 74.0251L305.091 74.0188C307.291 73.5569 309.566 74.0543 311.655 75.4446C314.822 77.5531 317.248 81.5767 318.154 86.2209C319.407 92.6487 317.552 98.7619 313.538 101.43C312.69 101.995 311.743 102.396 310.747 102.611Z" fill="#DF932E"/>
<path d="M783.989 158.577C786.215 159.739 787.745 161.489 788.41 163.639L788.418 163.668C788.711 164.646 788.817 165.67 788.732 166.687L788.723 166.799C788.257 171.557 783.806 176.084 777.647 178.063C773.143 179.515 768.443 179.335 765.074 177.58C762.846 176.42 761.317 174.667 760.652 172.507L760.645 172.484C760.353 171.506 760.247 170.482 760.332 169.465C760.73 164.656 765.185 160.078 771.426 158.06C775.923 156.63 780.619 156.82 783.989 158.577Z" fill="#DF932E"/>
<path d="M756.734 175.48C758.157 178.364 759.504 181.091 762.168 183.019C769.545 188.342 773.997 191.557 773.384 198.966C772.771 206.375 767.85 208.819 759.698 212.865C756.749 214.332 754.97 216.805 753.085 219.423C750.924 222.426 748.692 225.528 744.714 226.617C743.277 227.049 741.77 227.202 740.276 227.068C733.989 226.546 729.28 221.226 729.777 215.211C730.034 212.107 731.383 208.893 732.811 205.492C734.184 202.221 735.602 198.841 735.851 195.836C736.1 192.832 735.255 189.273 734.438 185.833C733.595 182.251 732.792 178.874 733.049 175.762C733.546 169.755 739.066 165.291 745.352 165.813C746.849 165.932 748.31 166.337 749.655 167.006C753.403 168.736 755.096 172.165 756.734 175.48Z" fill="#DF932E"/>
<path d="M777.996 218.011C775.558 215.714 774.339 212.954 774.564 210.24C774.594 209.87 774.652 209.502 774.737 209.14C776.038 203.549 783.237 200.594 791.14 202.415C794.462 203.178 797.487 204.732 799.656 206.778C802.089 209.072 803.306 211.835 803.082 214.547C803.051 214.917 802.993 215.285 802.908 215.647C801.607 221.238 794.408 224.193 786.506 222.372C783.188 221.611 780.167 220.057 777.996 218.011Z" fill="#DF932E"/>
<path d="M776.392 189.151C776.368 188.78 776.371 188.408 776.401 188.038C776.626 185.322 778.282 182.802 781.065 180.938C783.542 179.279 786.777 178.251 790.178 178.04C798.269 177.545 804.884 181.645 805.251 187.375C805.276 187.746 805.273 188.118 805.242 188.488C805.014 191.2 803.36 193.725 800.582 195.587C798.107 197.248 794.868 198.282 791.462 198.486C783.371 198.98 776.756 194.881 776.392 189.151Z" fill="#DF932E"/>
<path d="M756.466 222.989L756.477 222.965C757.487 220.948 759.282 219.472 761.668 218.696C765.287 217.521 769.947 218.115 774.152 220.286C779.97 223.291 783.613 228.539 783.216 233.343C783.133 234.36 782.86 235.353 782.41 236.269L782.399 236.293C781.397 238.305 779.595 239.78 777.208 240.556C773.59 241.732 768.929 241.137 764.725 238.967C758.907 235.961 755.263 230.713 755.661 225.91C755.744 224.894 756.017 223.903 756.466 222.989Z" fill="#DF932E"/>
<path d="M1159.34 72.6628C1160.88 70.6793 1162.88 69.4862 1165.11 69.2146L1165.14 69.2117C1166.16 69.0981 1167.18 69.1759 1168.17 69.4412L1168.28 69.4702C1172.87 70.7764 1176.54 75.9625 1177.39 82.3753C1178.01 87.0662 1177 91.6589 1174.67 94.6613C1173.13 96.647 1171.13 97.8392 1168.89 98.1085L1168.87 98.1111C1167.85 98.2244 1166.83 98.1466 1165.84 97.8816C1161.18 96.6331 1157.47 91.4338 1156.6 84.933C1155.99 80.2531 1157.01 75.6665 1159.34 72.6628Z" fill="#DF932E"/>
<path d="M1171.12 102.494C1174.21 101.608 1177.13 100.768 1179.51 98.4903C1186.06 92.1803 1190.01 88.3718 1197.2 90.2955C1204.38 92.2191 1205.9 97.4967 1208.43 106.239C1209.35 109.402 1211.47 111.593 1213.71 113.915C1216.28 116.576 1218.93 119.326 1219.29 123.434C1219.46 124.925 1219.35 126.435 1218.95 127.882C1217.31 133.975 1211.24 137.661 1205.41 136.099C1202.4 135.293 1199.48 133.393 1196.39 131.382C1193.41 129.449 1190.34 127.45 1187.43 126.67C1184.52 125.89 1180.86 126.087 1177.33 126.278C1173.66 126.469 1170.19 126.658 1167.17 125.85C1161.35 124.29 1157.94 118.064 1159.58 111.971C1159.96 110.519 1160.62 109.154 1161.52 107.95C1163.89 104.57 1167.56 103.515 1171.12 102.494Z" fill="#DF932E"/>
<path d="M1216.76 89.1505C1214.06 91.1406 1211.13 91.8482 1208.5 91.1436C1208.14 91.0474 1207.79 90.9247 1207.45 90.7765C1202.18 88.5002 1200.55 80.89 1203.75 73.4384C1205.1 70.3051 1207.16 67.6056 1209.56 65.8362C1212.25 63.8503 1215.19 63.1453 1217.82 63.8494C1218.18 63.9456 1218.53 64.0683 1218.87 64.2165C1224.14 66.4928 1225.76 74.1031 1222.56 81.5546C1221.22 84.6833 1219.16 87.3794 1216.76 89.1505Z" fill="#DF932E"/>
<path d="M1188.07 85.5868C1187.7 85.5447 1187.34 85.4752 1186.98 85.379C1184.35 84.674 1182.16 82.5957 1180.82 79.5251C1179.63 76.7919 1179.2 73.4258 1179.6 70.0412C1180.55 61.992 1185.76 56.2132 1191.47 56.8727C1191.84 56.9148 1192.2 56.9842 1192.56 57.0804C1195.19 57.788 1197.38 59.8659 1198.72 62.9305C1199.91 65.6624 1200.35 69.0338 1199.94 72.4216C1198.99 80.4709 1193.78 86.2497 1188.07 85.5868Z" fill="#DF932E"/>
<path d="M1217.82 111.224L1217.8 111.209C1215.99 109.855 1214.86 107.826 1214.52 105.34C1214.01 101.57 1215.43 97.0896 1218.31 93.3394C1222.3 88.1496 1228.12 85.4997 1232.77 86.7469C1233.76 87.0096 1234.69 87.4554 1235.51 88.061L1235.53 88.0759C1237.33 89.4212 1238.46 91.4571 1238.8 93.9436C1239.31 97.7137 1237.9 102.194 1235.01 105.944C1231.02 111.134 1225.21 113.784 1220.55 112.536C1219.57 112.274 1218.64 111.828 1217.82 111.224Z" fill="#DF932E"/>
<path d="M1631.54 193.049C1629.04 193.363 1626.79 192.796 1625.02 191.408L1624.99 191.389C1624.2 190.752 1623.53 189.971 1623.02 189.086L1622.96 188.989C1620.63 184.814 1621.71 178.558 1625.64 173.422C1628.52 169.662 1632.48 167.132 1636.25 166.655C1638.74 166.339 1641 166.908 1642.78 168.304L1642.8 168.319C1643.59 168.957 1644.26 169.738 1644.77 170.622C1647.19 174.8 1646.13 181.101 1642.15 186.315C1639.27 190.053 1635.31 192.572 1631.54 193.049Z" fill="#DF932E"/>
<path d="M1644.3 163.628C1641.49 162.069 1638.83 160.596 1635.54 160.529C1626.45 160.358 1620.96 160.253 1617.24 153.815C1613.52 147.377 1616.17 142.564 1620.56 134.594C1622.15 131.709 1622.21 128.663 1622.26 125.437C1622.33 121.739 1622.39 117.918 1625.04 114.756C1625.98 113.582 1627.13 112.597 1628.43 111.856C1633.9 108.703 1640.8 110.392 1643.82 115.619C1645.37 118.316 1646.1 121.726 1646.86 125.334C1647.6 128.804 1648.36 132.391 1649.87 135.001C1651.37 137.612 1654.09 140.056 1656.73 142.416C1659.46 144.88 1662.04 147.197 1663.61 149.902C1666.62 155.121 1664.63 161.934 1659.16 165.088C1657.87 165.843 1656.43 166.342 1654.95 166.559C1650.88 167.273 1647.54 165.42 1644.3 163.628Z" fill="#DF932E"/>
<path d="M1602.6 140.792C1605.91 141.29 1608.48 142.864 1609.84 145.222C1610.03 145.544 1610.19 145.879 1610.33 146.225C1612.44 151.561 1608.21 158.091 1600.68 161.097C1597.52 162.363 1594.14 162.81 1591.2 162.364C1587.89 161.866 1585.32 160.289 1583.95 157.932C1583.77 157.61 1583.61 157.275 1583.47 156.929C1581.35 151.593 1585.59 145.063 1593.12 142.057C1596.28 140.792 1599.65 140.347 1602.6 140.792Z" fill="#DF932E"/>
<path d="M1620.36 163.594C1620.59 163.885 1620.8 164.193 1620.98 164.515C1622.35 166.875 1622.42 169.889 1621.2 173.007C1620.11 175.782 1618.03 178.469 1615.36 180.581C1608.99 185.597 1601.22 185.997 1597.65 181.498C1597.42 181.207 1597.21 180.899 1597.03 180.577C1595.67 178.219 1595.59 175.201 1596.81 172.089C1597.9 169.314 1599.97 166.618 1602.66 164.51C1609.02 159.494 1616.79 159.093 1620.36 163.594Z" fill="#DF932E"/>
<path d="M1617.45 124.434L1617.46 124.459C1617.78 126.692 1617.14 128.928 1615.62 130.925C1613.32 133.953 1609.15 136.12 1604.46 136.732C1597.97 137.577 1591.98 135.341 1589.57 131.166C1589.06 130.283 1588.72 129.312 1588.57 128.303L1588.56 128.277C1588.24 126.052 1588.88 123.813 1590.4 121.815C1592.7 118.788 1596.87 116.62 1601.56 116.009C1608.06 115.164 1614.04 117.4 1616.45 121.574C1616.96 122.456 1617.3 123.426 1617.45 124.434Z" fill="#DF932E"/>
</g>
</g>
<defs>
<clipPath id="clip0">
<rect width="125.496" height="125.496" fill="white" transform="translate(0 140.644) rotate(-38.0292)"/>
</clipPath>
<clipPath id="clip1">
<rect width="125.496" height="125.496" fill="white" transform="translate(545.293) rotate(17.4768)"/>
</clipPath>
<clipPath id="clip2">
<rect width="125.496" height="125.496" fill="white" transform="translate(952.837 156.397) rotate(-24.8633)"/>
</clipPath>
<clipPath id="clip3">
<rect width="125.496" height="125.496" fill="white" transform="translate(1803.43 127.621) rotate(21.7422)"/>
</clipPath>
<clipPath id="clip4">
<rect width="125.496" height="125.496" fill="white" transform="translate(1356.46 18.2315) rotate(26.6374)"/>
</clipPath>
<clipPath id="clip5">
<rect width="125.496" height="125.496" fill="white" transform="translate(448.299 151.61) rotate(56.6071)"/>
</clipPath>
</defs>
</svg>
