<svg width="1920" height="1080" fill="none" xmlns="http://www.w3.org/2000/svg"><path d="M0 0h1920v1080H0V0z" fill="#F7F7F7"/><mask id="a" maskUnits="userSpaceOnUse" x="0" y="0" width="1920" height="1080"><path fill="#F2F2F2" d="M0 0h1920v1080H0z"/></mask><g mask="url(#a)" fill="#EAEAEA"><g clip-path="url(#clip0)"><path d="M266.899 200.426c-15.305 11.996-20.298 32.973-12.038 50.579l-89.215 69.775c-17.854-14.534-44.11-11.844-58.646 6.01-14.535 17.853-11.844 44.11 6.01 58.645a41.698 41.698 0 0018.985 8.708c-1.525 22.971 15.86 42.827 38.831 44.352 22.97 1.525 42.827-15.861 44.352-38.83a41.688 41.688 0 00-3.874-20.506l89.214-69.775c17.854 14.535 44.11 11.844 58.646-6.01 14.535-17.854 11.844-44.11-6.01-58.645a41.677 41.677 0 00-18.985-8.708c1.53-22.968-15.848-42.827-38.816-44.357a41.67 41.67 0 00-28.454 8.762zm39.951 51.081a32.384 32.384 0 0121.759-6.833c.04.004.079.012.118.013 17.873 1.047 31.514 16.385 30.467 34.259-1.046 17.873-16.385 31.514-34.258 30.467a32.42 32.42 0 01-20.944-9.356 4.632 4.632 0 00-6.12-.365l-95.336 74.563a4.632 4.632 0 00-1.12 6.028c9.19 15.366 4.182 35.273-11.184 44.462s-35.273 4.182-44.462-11.184a32.41 32.41 0 01-4.523-18.808 41.635 41.635 0 0023.775-8.8 4.632 4.632 0 10-5.707-7.297 32.386 32.386 0 01-21.759 6.833c-.04-.004-.079-.012-.118-.013-17.874-1.047-31.514-16.385-30.468-34.259 1.047-17.873 16.386-31.514 34.259-30.467a32.42 32.42 0 0120.943 9.355 4.633 4.633 0 006.121.365l95.335-74.562a4.631 4.631 0 001.12-6.028c-9.189-15.367-4.182-35.273 11.184-44.463 15.367-9.189 35.273-4.182 44.463 11.184a32.426 32.426 0 014.523 18.808 41.645 41.645 0 00-23.776 8.8 4.632 4.632 0 105.708 7.298z"/><path d="M195.006 356.622l7.297-5.707 5.707 7.297-7.297 5.708-5.707-7.298zM209.6 345.208l7.297-5.707 5.708 7.297-7.298 5.707-5.707-7.297zM224.195 333.793l21.892-17.121 5.707 7.297-21.892 17.122-5.707-7.298z"/></g><g clip-path="url(#clip1)"><path d="M483.926 536.584c5.981 18.504 23.948 30.427 43.322 28.748l34.715 107.808c-19.801 11.744-26.334 37.316-14.59 57.119 11.744 19.801 37.317 26.334 57.118 14.59a41.683 41.683 0 0014.723-14.816c21.035 9.356 45.67-.113 55.025-21.147 9.356-21.034-.113-45.67-21.147-55.025a41.686 41.686 0 00-20.583-3.437l-34.715-107.809c19.801-11.743 26.334-37.316 14.59-57.118s-37.316-26.334-57.119-14.59a41.685 41.685 0 00-14.722 14.815c-21.03-9.359-45.666.102-55.025 21.132a41.681 41.681 0 00-1.592 29.73zm61.728-19.877a32.39 32.39 0 011.092-22.781c.017-.036.039-.069.053-.106 7.149-16.415 26.251-23.927 42.666-16.779 16.415 7.148 23.927 26.251 16.779 42.666a32.419 32.419 0 01-16.006 16.431 4.631 4.631 0 00-2.454 5.618l37.097 115.205a4.633 4.633 0 005.272 3.131c17.594-3.324 34.55 8.243 37.875 25.836 3.324 17.593-8.243 34.55-25.836 37.875a32.422 32.422 0 01-19.213-2.243 41.656 41.656 0 00-.058-25.352 4.633 4.633 0 00-8.818 2.84 32.39 32.39 0 01-1.093 22.781c-.017.035-.039.069-.053.105-7.149 16.416-26.251 23.928-42.666 16.78-16.415-7.148-23.927-26.251-16.779-42.666a32.42 32.42 0 0116.006-16.431 4.632 4.632 0 002.454-5.619l-37.098-115.205a4.632 4.632 0 00-5.271-3.131c-17.594 3.325-34.551-8.242-37.875-25.835-3.325-17.594 8.243-34.55 25.835-37.875a32.424 32.424 0 0119.214 2.243 41.638 41.638 0 00.058 25.351 4.633 4.633 0 008.819-2.839z"/><path d="M605.734 657.947l-2.84-8.818 8.818-2.84 2.84 8.818-8.818 2.84zM600.055 640.311l-2.84-8.818 8.818-2.84 2.84 8.818-8.818 2.84zM594.375 622.674l-8.518-26.454 8.818-2.84 8.519 26.455-8.819 2.839z"/></g><g clip-path="url(#clip2)"><path d="M1164.73 326.762c-18.18-6.896-38.72-.322-49.52 15.851l-105.85-40.278c3.21-22.798-12.675-43.88-35.473-47.088-22.797-3.209-43.879 12.672-47.087 35.469a41.677 41.677 0 002.364 20.753c-20.45 10.574-28.455 35.722-17.882 56.172 10.574 20.449 35.722 28.454 56.171 17.881A41.672 41.672 0 00983 371.603l105.86 40.278c-3.21 22.798 12.67 43.88 35.47 47.088 22.79 3.208 43.88-12.672 47.08-35.47.99-7.007.18-14.148-2.36-20.753 20.45-10.567 28.46-35.711 17.89-56.161a41.674 41.674 0 00-22.21-19.823zm-23.06 60.609a32.38 32.38 0 0117.1 15.091c.02.035.03.073.05.107 8.35 15.84 2.27 35.447-13.57 43.793-15.84 8.347-35.44 2.273-43.79-13.567a32.355 32.355 0 01-2.82-22.764 4.634 4.634 0 00-2.86-5.427l-113.116-43.042a4.63 4.63 0 00-5.738 2.159c-8.401 15.812-28.028 21.819-43.84 13.419-15.811-8.4-21.819-28.028-13.419-43.839a32.415 32.415 0 0113.758-13.597 41.655 41.655 0 0019.827 15.799 4.633 4.633 0 003.295-8.659 32.388 32.388 0 01-17.101-15.09c-.017-.036-.03-.074-.049-.108-8.347-15.839-2.272-35.446 13.567-43.793 15.839-8.347 35.446-2.272 43.793 13.567a32.448 32.448 0 012.823 22.764 4.634 4.634 0 002.85 5.427l113.12 43.042a4.637 4.637 0 005.74-2.159c8.4-15.812 28.03-21.819 43.84-13.419 15.81 8.4 21.82 28.028 13.42 43.839a32.464 32.464 0 01-13.76 13.597 41.671 41.671 0 00-19.83-15.799 4.632 4.632 0 00-3.29 8.659z"/><path d="M993.862 345.999l8.658 3.294-3.294 8.659-8.658-3.295 3.294-8.658zM1011.18 352.588l8.66 3.294-3.3 8.659-8.66-3.295 3.3-8.658zM1028.5 359.177l25.97 9.884-3.29 8.658-25.98-9.884 3.3-8.658z"/></g><g clip-path="url(#clip3)"><path d="M1805.94 345.437c-8.69-17.395-28.25-26.484-47.15-21.913l-50.52-101.371c17.82-14.585 20.43-40.848 5.85-58.661-14.59-17.813-40.85-20.43-58.66-5.845a41.611 41.611 0 00-12.33 16.859c-22.21-6.089-45.14 6.973-51.23 29.174-6.09 22.201 6.97 45.134 29.17 51.223 6.82 1.87 14 1.975 20.87.307l50.52 101.37c-17.81 14.585-20.43 40.848-5.85 58.662 14.59 17.813 40.85 20.429 58.67 5.844a41.795 41.795 0 0012.33-16.859c22.19 6.093 45.13-6.961 51.22-29.158a41.66 41.66 0 00-2.89-29.632zm-58.04 28.925a32.393 32.393 0 012.34 22.686c-.01.038-.03.074-.04.113-4.6 17.302-22.35 27.599-39.66 22.998-17.3-4.601-27.6-22.359-23-39.661a32.45 32.45 0 0113.36-18.649 4.618 4.618 0 001.58-5.924L1648.5 247.6a4.63 4.63 0 00-5.68-2.303c-16.9 5.93-35.4-2.959-41.33-19.853-5.93-16.894 2.96-35.396 19.85-41.326a32.449 32.449 0 0119.34-.669 41.624 41.624 0 003.86 25.055 4.632 4.632 0 006.21 2.08c2.29-1.141 3.23-3.922 2.08-6.212a32.448 32.448 0 01-2.34-22.686c.01-.038.03-.075.04-.113 4.6-17.303 22.36-27.599 39.66-22.998 17.3 4.601 27.6 22.359 23 39.661a32.406 32.406 0 01-13.36 18.649 4.64 4.64 0 00-1.58 5.924l53.98 108.324a4.642 4.642 0 005.69 2.304c16.89-5.93 35.39 2.959 41.32 19.852 5.93 16.895-2.96 35.397-19.85 41.326a32.41 32.41 0 01-19.33.67 41.708 41.708 0 00-3.87-25.056 4.63 4.63 0 00-6.21-2.079 4.633 4.633 0 00-2.08 6.212z"/><path d="M1667.28 243.75l4.13 8.291-8.29 4.132-4.13-8.291 8.29-4.132zM1675.55 260.333l4.13 8.291-8.29 4.132-4.14-8.291 8.3-4.132zM1683.81 276.916l12.4 24.874-8.29 4.132-12.4-24.874 8.29-4.132z"/></g><g clip-path="url(#clip4)"><path d="M1011.03 838.02c-19.101 3.628-33.17 19.968-33.918 39.401l-111.294 21.01c-9.185-21.11-33.744-30.779-54.855-21.594-21.111 9.184-30.779 33.744-21.595 54.855a41.688 41.688 0 0012.866 16.454c-11.904 19.705-5.579 45.328 14.125 57.234 19.705 11.9 45.328 5.58 57.231-14.128a41.687 41.687 0 005.976-19.994l111.294-21.01c9.18 21.11 33.74 30.779 54.86 21.594 21.11-9.185 30.77-33.744 21.59-54.855a41.638 41.638 0 00-12.87-16.455c11.91-19.699 5.59-45.322-14.11-57.228a41.658 41.658 0 00-29.3-5.284zm12.03 63.723a32.383 32.383 0 0122.47 3.923c.03.021.07.046.1.065 15.4 9.139 20.47 29.028 11.33 44.424-9.14 15.397-29.03 20.47-44.42 11.332a32.387 32.387 0 01-14.311-17.929 4.632 4.632 0 00-5.269-3.135l-118.93 22.452a4.632 4.632 0 00-3.764 4.84c1.107 17.871-12.484 33.255-30.353 34.365-17.87 1.1-33.254-12.488-34.361-30.358a32.43 32.43 0 014.62-18.785 41.642 41.642 0 0025.161 3.102 4.632 4.632 0 00-1.718-9.103 32.393 32.393 0 01-22.467-3.923c-.034-.022-.064-.047-.099-.066-15.396-9.139-20.469-29.028-11.331-44.424 9.138-15.397 29.028-20.47 44.424-11.332a32.424 32.424 0 0114.308 17.929 4.632 4.632 0 005.269 3.135l118.93-22.453a4.63 4.63 0 003.763-4.84c-1.106-17.871 12.484-33.254 30.358-34.36 17.87-1.106 33.25 12.484 34.36 30.354a32.52 32.52 0 01-4.62 18.784 41.643 41.643 0 00-25.16-3.101 4.636 4.636 0 00-3.7 5.411 4.637 4.637 0 005.41 3.693z"/><path d="M875.438 943.754l9.103-1.719 1.719 9.104-9.103 1.718-1.719-9.103zM893.645 940.317l9.103-1.719 1.718 9.103-9.103 1.719-1.718-9.103zM911.851 936.88l27.31-5.156 1.719 9.103-27.31 5.156-1.719-9.103z"/></g><g clip-path="url(#clip5)"><path d="M205.015 889.636c-17.108-9.245-38.335-5.451-51.181 9.149L54.25 844.832c6.201-22.171-6.745-45.171-28.916-51.373-22.171-6.201-45.172 6.745-51.373 28.916a41.688 41.688 0 00-.408 20.883c-21.67 7.77-32.938 31.636-25.168 53.306 7.77 21.671 31.636 32.938 53.305 25.168a41.676 41.676 0 0017.255-11.736l99.584 53.953c-6.201 22.171 6.745 45.171 28.917 51.371 22.172 6.2 45.172-6.74 51.373-28.915a41.686 41.686 0 00.408-20.882c21.669-7.764 32.942-31.625 25.178-53.295a41.675 41.675 0 00-19.39-22.592zm-30.891 57.018a32.388 32.388 0 0114.95 17.224c.012.038.02.077.034.113 6.174 16.807-2.445 35.435-19.251 41.609-16.806 6.17-35.435-2.45-41.609-19.251a32.424 32.424 0 01.219-22.938 4.631 4.631 0 00-2.108-5.757L19.943 900a4.631 4.631 0 00-5.974 1.379c-10.422 14.559-30.673 17.912-45.231 7.491-14.56-10.422-17.913-30.673-7.492-45.231a32.415 32.415 0 0115.44-11.654 41.646 41.646 0 0017.558 18.287 4.632 4.632 0 104.413-8.145 32.387 32.387 0 01-14.95-17.224c-.012-.038-.02-.077-.035-.113-6.173-16.806 2.446-35.435 19.252-41.609 16.806-6.174 35.435 2.446 41.609 19.251a32.42 32.42 0 01-.22 22.937 4.632 4.632 0 002.109 5.758l106.416 57.654a4.633 4.633 0 005.975-1.379c10.421-14.559 30.672-17.913 45.231-7.491 14.559 10.422 17.912 30.673 7.491 45.231a32.423 32.423 0 01-15.44 11.654 41.649 41.649 0 00-17.558-18.288 4.633 4.633 0 00-4.413 8.146z"/><path d="M33.104 886.058l8.146 4.413-4.413 8.145-8.146-4.413 4.413-8.145zM49.395 894.884l8.146 4.413-4.413 8.145-8.146-4.413 4.413-8.145zM65.686 903.71l24.437 13.239-4.413 8.145-24.437-13.239 4.413-8.145z"/></g><g clip-path="url(#clip6)"><path d="M2056.5 942.403c-16.35-10.518-37.81-8.348-51.72 5.233l-95.2-61.364c7.87-21.636-3.29-45.553-24.93-53.422-21.64-7.868-45.55 3.293-53.42 24.929a41.673 41.673 0 00-2 20.791c-22.19 6.101-35.24 29.042-29.14 51.24 6.1 22.198 29.04 35.247 51.24 29.146a41.67 41.67 0 0018.09-10.391l95.2 61.365c-7.87 21.63 3.29 45.55 24.93 53.42 21.64 7.87 45.55-3.29 53.42-24.93a41.55 41.55 0 001.99-20.79c22.2-6.09 35.26-29.029 29.16-51.226a41.686 41.686 0 00-17.62-24.001zm-35.13 54.506a32.432 32.432 0 0113.6 18.311c.01.04.01.08.02.11 4.88 17.23-5.13 35.15-22.36 40.03-17.22 4.88-35.14-5.13-40.02-22.36a32.408 32.408 0 011.96-22.85c1.01-2.11.3-4.64-1.66-5.9l-101.73-65.577a4.63 4.63 0 00-6.06.921c-11.5 13.725-31.95 15.53-45.67 4.032-13.73-11.497-15.53-31.945-4.03-45.669a32.363 32.363 0 0116.28-10.447 41.62 41.62 0 0016.11 19.569 4.642 4.642 0 006.41-1.384 4.64 4.64 0 00-1.39-6.403 32.437 32.437 0 01-13.6-18.31.455.455 0 00-.02-.115c-4.88-17.227 5.13-35.147 22.36-40.026 17.22-4.879 35.14 5.131 40.02 22.358a32.42 32.42 0 01-1.96 22.854 4.637 4.637 0 001.66 5.901l101.73 65.574a4.63 4.63 0 006.06-.921c11.5-13.725 31.95-15.53 45.67-4.032 13.73 11.498 15.53 31.945 4.04 45.669a32.427 32.427 0 01-16.28 10.446 41.691 41.691 0 00-16.12-19.568 4.628 4.628 0 00-6.4 1.384 4.628 4.628 0 001.38 6.403z"/><path d="M1885.36 925.772l7.79 5.019-5.02 7.786-7.79-5.019 5.02-7.786zM1900.93 935.81l7.79 5.019-5.02 7.787-7.78-5.019 5.01-7.787zM1916.51 945.849l23.36 15.057-5.02 7.787-23.36-15.058 5.02-7.786z"/></g></g><defs><clipPath id="clip0"><path fill="#fff" transform="rotate(-38.029 441.545 90.48)" d="M0 0h277.942v277.942H0z"/></clipPath><clipPath id="clip1"><path fill="#fff" transform="rotate(-107.849 530.238 212.811)" d="M0 0h277.942v277.942H0z"/></clipPath><clipPath id="clip2"><path fill="#fff" transform="rotate(20.832 .7 2723.642)" d="M0 0h277.942v277.942H0z"/></clipPath><clipPath id="clip3"><path fill="#fff" transform="rotate(63.511 798.175 1475.491)" d="M0 0h277.942v277.942H0z"/></clipPath><clipPath id="clip4"><path fill="#fff" transform="rotate(-10.691 4730.504 -3686.567)" d="M0 0h277.942v277.942H0z"/></clipPath><clipPath id="clip5"><path fill="#fff" transform="rotate(28.448 -1397.125 417.964)" d="M0 0h277.942v277.942H0z"/></clipPath><clipPath id="clip6"><path fill="#fff" transform="rotate(32.806 -336.29 3597.709)" d="M0 0h277.942v277.942H0z"/></clipPath></defs></svg>