<svg width="330" height="475" viewBox="0 0 330 475" fill="none" xmlns="http://www.w3.org/2000/svg">
<path d="M330 1.63783C320.559 -0.0643787 311.336 0.886305 302.847 4.50258L302.689 4.57442C297.275 6.94063 292.354 10.3024 288.182 14.4849L287.722 14.9445C268.454 34.8015 265.108 71.3988 279.406 106.007C289.841 131.336 308.219 151.423 328.571 159.739C329.047 159.934 329.524 160.122 330 160.303V1.63783Z" fill="#EEEEEE"/>
<path d="M330 200.791C325.108 198.277 320.223 195.669 315.422 192.925C264.318 180.257 233.466 172.615 203.038 203.044C172.609 233.472 180.222 264.353 192.847 315.5C197.395 333.994 193.143 351.083 188.639 369.188L188.638 369.19L188.624 369.246L188.624 369.249C183.446 390.024 178.096 411.489 188.165 433.134C191.631 441.1 196.592 448.328 202.779 454.427C228.597 480.245 269.711 481.142 294.416 456.438C307.163 443.69 316.312 425.708 325.993 406.677C327.303 404.1 328.641 401.555 330 399.04V200.791Z" fill="#EEEEEE"/>
<path d="M148.831 240.014C137.685 251.16 120.938 256.101 101.67 253.925C84.5132 251.993 66.3511 244.46 50.5804 232.653C12.9778 204.559 -0.904184 161.707 18.9241 135.042C20.2043 133.312 21.611 131.68 23.1325 130.158C34.2711 119.02 51.0256 114.057 70.2579 116.226C87.4074 118.151 105.584 125.699 121.383 137.519C158.986 165.614 172.868 208.466 153.04 235.131C151.759 236.861 150.353 238.493 148.831 240.014Z" fill="#EEEEEE"/>
<path d="M235.132 153.039C236.861 151.758 238.494 150.352 240.015 148.83C251.168 137.677 256.102 120.937 253.926 101.669C251.987 84.5194 244.425 66.386 232.633 50.5722C204.553 12.984 161.701 -0.897997 135.021 18.9159C133.291 20.1962 131.659 21.6028 130.138 23.1243C119.013 34.2772 114.051 51.0318 116.22 70.2641C118.144 87.4136 125.692 105.59 137.535 121.397C165.614 158.985 208.467 172.867 235.132 153.039Z" fill="#EEEEEE"/>
<path d="M160.293 367.516L160.228 367.652C157.867 373.057 154.513 377.97 150.339 382.137C130.612 401.865 93.8061 405.406 58.7673 390.949C33.4524 380.5 13.3943 362.137 5.04931 341.755C-0.45173 328.312 -0.674387 314.832 4.46044 302.874L4.52508 302.738C6.89001 297.324 10.2519 292.403 14.4356 288.231C34.1633 268.504 70.9688 264.963 106.008 279.419C131.323 289.869 151.381 308.232 159.726 328.613C165.227 342.057 165.421 355.508 160.293 367.516Z" fill="#EEEEEE"/>
</svg>
